SplineFontDB: 3.0
FontName: aghtex_mathfrak_light
FullName: aghtex_mathfrak_light
FamilyName: aghtex_mathfrak
Weight: Light
Copyright: Copyright (C) 2012 KM, 1997, 2009, 2011 American Mathematical Society (<http://www.ams.org>), with Reserved Font Name EUFM10.
Version: 3.3.0.1
ItalicAngle: 0
UnderlinePosition: -100
UnderlineWidth: 50
Ascent: 819
Descent: 205
LayerCount: 2
Layer: 0 1 "+gMyXYgAA"  1
Layer: 1 1 "+Uk2XYgAA"  0
NeedsXUIDChange: 1
FSType: 8
OS2Version: 1
OS2_WeightWidthSlopeOnly: 0
OS2_UseTypoMetrics: 0
CreationTime: 1344259771
ModificationTime: 1355657098
PfmFamily: 17
TTFWeight: 300
TTFWidth: 5
LineGap: 90
VLineGap: 0
OS2TypoAscent: 0
OS2TypoAOffset: 1
OS2TypoDescent: 0
OS2TypoDOffset: 1
OS2TypoLinegap: 90
OS2WinAscent: 0
OS2WinAOffset: 1
OS2WinDescent: 0
OS2WinDOffset: 1
HheadAscent: 0
HheadAOffset: 1
HheadDescent: 0
HheadDOffset: 1
OS2Vendor: 'PfEd'
MarkAttachClasses: 1
DEI: 91125
ShortTable: maxp 16
  0
  0
  0
  0
  0
  0
  0
  2
  1
  2
  22
  0
  256
  0
  0
  0
EndShort
TtTable: prep
PUSHW_1
 511
SCANCTRL
PUSHB_1
 1
SCANTYPE
SVTCA[y-axis]
MPPEM
PUSHB_1
 8
LT
IF
PUSHB_2
 1
 1
INSTCTRL
EIF
PUSHB_2
 70
 6
CALL
IF
POP
PUSHB_1
 16
EIF
MPPEM
PUSHB_1
 20
GT
IF
POP
PUSHB_1
 128
EIF
SCVTCI
PUSHB_1
 6
CALL
NOT
IF
SVTCA[y-axis]
PUSHB_1
 5
DUP
RCVT
PUSHB_1
 3
CALL
WCVTP
PUSHB_1
 6
DUP
RCVT
PUSHB_3
 5
 57
 2
CALL
PUSHB_1
 3
CALL
WCVTP
SVTCA[x-axis]
PUSHB_1
 7
DUP
RCVT
PUSHB_1
 3
CALL
WCVTP
PUSHB_1
 8
DUP
RCVT
PUSHW_3
 7
 32767
 2
CALL
PUSHB_2
 3
 70
SROUND
CALL
WCVTP
PUSHB_1
 9
DUP
RCVT
PUSHB_3
 8
 73
 2
CALL
PUSHB_2
 3
 70
SROUND
CALL
WCVTP
EIF
PUSHB_1
 20
CALL
EndTTInstrs
TtTable: fpgm
PUSHB_1
 0
FDEF
PUSHB_1
 0
SZP0
MPPEM
PUSHB_1
 46
LT
IF
PUSHB_1
 74
SROUND
EIF
PUSHB_1
 0
SWAP
MIAP[rnd]
RTG
PUSHB_1
 6
CALL
IF
RTDG
EIF
MPPEM
PUSHB_1
 46
LT
IF
RDTG
EIF
DUP
MDRP[rp0,rnd,grey]
PUSHB_1
 1
SZP0
MDAP[no-rnd]
RTG
ENDF
PUSHB_1
 1
FDEF
DUP
MDRP[rp0,min,white]
PUSHB_1
 12
CALL
ENDF
PUSHB_1
 2
FDEF
MPPEM
GT
IF
RCVT
SWAP
EIF
POP
ENDF
PUSHB_1
 3
FDEF
ROUND[Black]
RTG

StartChar: dnos
Encoding: 0 -1 0
Width: 497
VWidth: 1000
Flags: W
VStem: 73 79<118.453 349.543> 75 61<519.488 613.003> 349 81<126.503 371.924>
LayerCount: 2
Fore
SplineSet
427 439 m 1,0,1
 430 402 430 402 430 328 c 0,2,3
 430 250 430 250 425 202 c 128,-1,4
 420 154 420 154 401 109 c 1,5,-1
 214 -34 l 1,6,7
 118 31 118 31 76 81 c 1,8,9
 73 126 73 126 73 166 c 0,10,11
 73 221 73 221 79 335 c 1,12,13
 152 404 152 404 183 427 c 1,14,15
 147 441 147 441 127.5 451 c 128,-1,16
 108 461 108 461 91.5 481 c 128,-1,17
 75 501 75 501 75 528 c 0,18,19
 75 610 75 610 154 684 c 1,20,-1
 166 674 l 1,21,22
 136 639 136 639 136 596 c 0,23,24
 136 560 136 560 164.5 530.5 c 128,-1,25
 193 501 193 501 240.5 483.5 c 128,-1,26
 288 466 288 466 333 455.5 c 128,-1,27
 378 445 378 445 427 439 c 1,0,1
341 371 m 1,28,-1
 208 419 l 1,29,30
 169 368 169 368 160.5 339 c 128,-1,31
 152 310 152 310 152 254 c 0,32,33
 152 219 152 219 159 135 c 1,34,35
 178 112 178 112 204 94 c 0,36,37
 270 48 270 48 285 48 c 0,38,39
 293 48 293 48 299 58 c 0,40,41
 349 136 349 136 349 267 c 0,42,43
 349 318 349 318 341 371 c 1,28,-1
EndSplineSet
EndChar

StartChar: dalt
Encoding: 1 -1 1
Width: 498
VWidth: 1000
Flags: W
HStem: 440 20G<173 234> 550 19<39.9819 54.2903>
VStem: 76 80<112.456 362.924> 347 86<158.604 423.223>
LayerCount: 2
Fore
SplineSet
234 451 m 1,0,-1
 175 396 l 1,1,2
 156 351 156 351 156 260 c 0,3,4
 156 204 156 204 164 140 c 0,5,6
 166 124 166 124 201.5 96 c 128,-1,7
 237 68 237 68 280 43 c 1,8,9
 347 120 347 120 347 314 c 0,10,11
 347 360 347 360 344 406 c 1,12,13
 234 519 234 519 102 561 c 1,14,15
 74 561 74 561 43 550 c 1,16,-1
 35 569 l 1,17,18
 90 597 90 597 158 616 c 1,19,20
 222 602 222 602 300 558.5 c 128,-1,21
 378 515 378 515 430 459 c 1,22,23
 433 415.5 433 415.5 433 372 c 0,24,25
 433 210 433 210 394 102 c 1,26,27
 325 46 325 46 205 -30 c 1,28,29
 132 25 132 25 78 82 c 1,30,31
 76 111 76 111 76 168 c 0,32,33
 76 264 76 264 88 360 c 1,34,35
 131 401 131 401 215 460 c 1,36,-1
 234 451 l 1,0,-1
EndSplineSet
EndChar

StartChar: fnos
Encoding: 2 -1 2
Width: 333
VWidth: 1000
Flags: W
HStem: 351 35<45 122 208 311> 601 80<180.985 256.081>
VStem: 116 27<485.684 580.348> 122 86<94.8213 351>
LayerCount: 2
Fore
SplineSet
339 665 m 1,0,-1
 339 649 l 1,1,-1
 268 566 l 1,2,3
 239 601 239 601 206 601 c 0,4,5
 179 601 179 601 161 585.5 c 128,-1,6
 143 570 143 570 143 544 c 0,7,8
 143 491 143 491 207 386 c 1,9,-1
 324 386 l 1,10,-1
 311 351 l 1,11,-1
 208 351 l 1,12,13
 208 -36 208 -36 190 -70 c 2,14,-1
 91 -257 l 1,15,-1
 73 -250 l 1,16,17
 122 -100 122 -100 122 38 c 2,18,-1
 122 351 l 1,19,-1
 30 351 l 1,20,-1
 45 385 l 1,21,-1
 124 385 l 1,22,23
 116 475 116 475 116 521 c 0,24,25
 116 575 116 575 153.5 628 c 128,-1,26
 191 681 191 681 236 681 c 0,27,28
 265 681 265 681 304 652 c 0,29,30
 308 648 308 648 312 648 c 128,-1,31
 316 648 316 648 319 651 c 2,32,-1
 339 665 l 1,0,-1
EndSplineSet
EndChar

StartChar: falt
Encoding: 3 -1 3
Width: 329
VWidth: 1000
Flags: W
HStem: 351 35<46 123 208 312> 585 63<209.477 248>
VStem: 96 54<505.673 592.212> 115 88<-84.3926 173.389 386.109 481.126>
LayerCount: 2
Fore
SplineSet
208 351 m 1,0,-1
 203 41 l 2,1,2
 201 -31 201 -31 189 -69 c 1,3,4
 168 -110 168 -110 146.5 -151.5 c 128,-1,5
 125 -193 125 -193 113.5 -215.5 c 128,-1,6
 102 -238 102 -238 100 -242 c 1,7,-1
 78 -240 l 1,8,9
 84 -220 84 -220 93.5 -181.5 c 128,-1,10
 103 -143 103 -143 109 -114 c 128,-1,11
 115 -85 115 -85 115 -84 c 0,12,13
 121 -28 121 -28 121 3 c 0,14,15
 121 61 121 61 122 177 c 128,-1,16
 123 293 123 293 123 351 c 1,17,-1
 30 351 l 1,18,-1
 46 385 l 1,19,-1
 123 385 l 1,20,21
 123 402 123 402 109.5 467 c 128,-1,22
 96 532 96 532 96 560 c 1,23,24
 131 616 131 616 193 681 c 1,25,26
 239 648 239 648 263 648 c 128,-1,27
 287 648 287 648 308 667 c 1,28,-1
 315 660 l 1,29,-1
 248 585 l 1,30,31
 209 585 209 585 150 598 c 1,32,33
 150 563 150 563 177 492 c 128,-1,34
 204 421 204 421 208 386 c 1,35,-1
 324 386 l 1,36,-1
 312 351 l 1,37,-1
 208 351 l 1,0,-1
EndSplineSet
EndChar

StartChar: galt
Encoding: 4 -1 4
Width: 503
VWidth: 1000
Flags: W
HStem: -214 64<165.511 305.153> 450 20G<220.5 275.5 401 444>
VStem: 73 82<123.922 365.615> 340 78<124 348.007> 363 76<-61.918 93.349>
LayerCount: 2
Fore
SplineSet
431 -53 m 1,0,-1
 306 -192 l 1,1,2
 273 -214 273 -214 226 -214 c 0,3,4
 124 -214 124 -214 51 -143 c 1,5,-1
 90 -48 l 1,6,-1
 101 -47 l 1,7,8
 111 -95 111 -95 156 -122.5 c 128,-1,9
 201 -150 201 -150 254 -150 c 0,10,11
 301 -150 301 -150 332 -127.5 c 128,-1,12
 363 -105 363 -105 363 -56 c 0,13,14
 363 -19 363 -19 340 98 c 1,15,-1
 159 -31 l 1,16,-1
 76 65 l 1,17,18
 76 77 76 77 75 100 c 128,-1,19
 74 123 74 123 73.5 141.5 c 128,-1,20
 73 160 73 160 73 176 c 0,21,22
 73 292 73 292 90 368 c 1,23,24
 190 437 190 437 251 470 c 1,25,26
 300 439 300 439 366 424 c 1,27,-1
 436 464 l 1,28,-1
 444 459 l 1,29,30
 418 394 418 394 418 135 c 1,31,32
 439 1 439 1 439 -18 c 0,33,34
 439 -35 439 -35 431 -53 c 1,0,-1
230 48 m 1,35,-1
 340 124 l 1,36,37
 340 224 340 224 348 352 c 1,38,39
 257 361 257 361 178 390 c 1,40,41
 155 340 155 340 155 245 c 0,42,43
 155 183.5 155 183.5 161 122 c 1,44,45
 205 68 205 68 230 48 c 1,35,-1
EndSplineSet
EndChar

StartChar: kalt
Encoding: 5 -1 5
Width: 333
VWidth: 1000
Flags: W
HStem: -20 21G<152.605 202.75> 351 35<42 88 168 262> 449 21G<258.5 292.091>
VStem: 82 86<118 351 386 493.08 500 586.398> 82 16<651.691 671>
LayerCount: 2
Fore
SplineSet
168 351 m 1,0,-1
 168 118 l 1,1,-1
 228 69 l 2,2,3
 235 64 235 64 239 64 c 0,4,5
 241 64 241 64 311 99 c 1,6,-1
 312 76 l 1,7,-1
 174 -20 l 1,8,-1
 82 66 l 1,9,10
 88 186 88 186 88 351 c 1,11,-1
 25 351 l 1,12,-1
 42 386 l 1,13,-1
 89 386 l 1,14,15
 89 570 89 570 82 671 c 1,16,-1
 98 676 l 1,17,-1
 121 598 l 1,18,19
 224 674 224 674 246 687 c 1,20,-1
 262 677 l 1,21,22
 173 601 173 601 168 500 c 1,23,24
 269 583 269 583 274 583 c 1,25,26
 300 543 300 543 315 504 c 1,27,-1
 279 449 l 1,28,29
 238 506 238 506 217 506 c 0,30,31
 167 506 167 506 167 386 c 1,32,-1
 279 386 l 1,33,-1
 262 351 l 1,34,-1
 168 351 l 1,0,-1
EndSplineSet
EndChar

StartChar: talt
Encoding: 6 -1 6
Width: 334
VWidth: 1000
Flags: W
HStem: -21 21G<164 237.095> 351 35<45 118 196 295>
VStem: 116 94<389.245 534> 118 78<105.404 351 386 534>
LayerCount: 2
Fore
SplineSet
348 84 m 1,0,-1
 211 -21 l 1,1,2
 117 61 117 61 116 61 c 1,3,4
 118 100 118 100 118 351 c 1,5,-1
 29 351 l 1,6,-1
 45 386 l 1,7,-1
 118 386 l 1,8,9
 118 486 118 486 116 534 c 1,10,-1
 199 578 l 1,11,-1
 210 574 l 1,12,13
 196 490 196 490 196 386 c 1,14,-1
 313 386 l 1,15,-1
 295 351 l 1,16,-1
 196 351 l 1,17,18
 196 143 196 143 197 123 c 1,19,20
 261 67 261 67 275 67 c 0,21,22
 281 67 281 67 342 101 c 1,23,-1
 348 84 l 1,0,-1
EndSplineSet
EndChar

StartChar: ualt
Encoding: 7 -1 7
Width: 501
VWidth: 1000
Flags: W
HStem: -19 21G<387 433.5> 448 20G<382.364 428>
VStem: 97 75<118.934 380.951> 340 73<102.978 420.577>
LayerCount: 2
Fore
SplineSet
421 468 m 1,0,-1
 428 462 l 1,1,2
 413 343.5 413 343.5 413 225 c 0,3,4
 413 196 413 196 413.5 180 c 128,-1,5
 414 164 414 164 417.5 137 c 128,-1,6
 421 110 421 110 430.5 96.5 c 128,-1,7
 440 83 440 83 455 83 c 0,8,9
 468 83 468 83 508 103 c 1,10,-1
 514 88 l 1,11,12
 472 54 472 54 395 -19 c 1,13,-1
 387 -16 l 1,14,15
 363 42 363 42 337 78 c 1,16,17
 307 64 307 64 268 38 c 128,-1,18
 229 12 229 12 204.5 -7 c 2,19,-1
 180 -26 l 1,20,21
 160 -10 160 -10 120 15 c 128,-1,22
 80 40 80 40 55 48 c 1,23,24
 97 121 97 121 97 264 c 0,25,26
 97 295 97 295 96 313 c 128,-1,27
 95 331 95 331 86.5 356.5 c 128,-1,28
 78 382 78 382 61 396 c 1,29,-1
 23 376 l 1,30,-1
 8 386 l 1,31,-1
 119 474 l 1,32,33
 151 436 151 436 171 421 c 1,34,35
 171 410 171 410 171.5 388.5 c 128,-1,36
 172 367 172 367 172 356 c 0,37,38
 172 197 172 197 146 104 c 1,39,-1
 245 55 l 1,40,-1
 335 101 l 1,41,42
 340 164 340 164 340 264 c 0,43,44
 340 314 340 314 336 424 c 1,45,-1
 421 468 l 1,0,-1
EndSplineSet
EndChar

StartChar: quoteleft
Encoding: 18 8216 8
Width: 215
VWidth: 1000
Flags: W
HStem: 406 303
VStem: 45 60<519.111 606.371>
LayerCount: 2
Fore
SplineSet
119 532 m 2,0,-1
 151 483 l 2,1,2
 167 457 167 457 167 448 c 0,3,4
 167 435 167 435 149 420.5 c 128,-1,5
 131 406 131 406 119 406 c 0,6,7
 97 406 97 406 71 455 c 128,-1,8
 45 504 45 504 45 541 c 0,9,10
 45 564 45 564 63.5 599 c 128,-1,11
 82 634 82 634 96 652.5 c 128,-1,12
 110 671 110 671 140 709 c 1,13,-1
 154 695 l 1,14,15
 105 611 105 611 105 577 c 0,16,17
 105 554 105 554 119 532 c 2,0,-1
EndSplineSet
EndChar

StartChar: quoteright
Encoding: 19 8217 9
Width: 215
VWidth: 1000
Flags: W
HStem: 395 300
VStem: 106 57<491.025 579.172>
LayerCount: 2
Fore
SplineSet
74 395 m 1,0,-1
 58 406 l 1,1,2
 98.5043 475.195 98.5043 475.195 104.08 504.978 c 0,3,4
 106 515.232 106 515.232 106 525 c 0,5,6
 106 540 106 540 93 564 c 1,7,-1
 58 621 l 2,8,9
 44 644 44 644 44 654 c 0,10,11
 44 665 44 665 62 680 c 128,-1,12
 80 695 80 695 92 695 c 0,13,14
 112 695 112 695 137.5 646 c 128,-1,15
 163 597 163 597 163 564 c 0,16,17
 163 542 163 542 153 517.5 c 128,-1,18
 143 493 143 493 132.5 477 c 128,-1,19
 122 461 122 461 102 434 c 128,-1,20
 82 407 82 407 74 395 c 1,0,-1
EndSplineSet
EndChar

StartChar: exclam
Encoding: 33 33 10
Width: 296
VWidth: 1000
Flags: W
HStem: -11 114<107.533 192.253> 670 20G<139.5 170.5>
VStem: 90 114<6.53271 85.4673>
LayerCount: 2
Fore
SplineSet
90 46 m 128,-1,1
 90 69 90 69 107 86 c 128,-1,2
 124 103 124 103 148 103 c 0,3,4
 171 103 171 103 187.5 86 c 128,-1,5
 204 69 204 69 204 46 c 128,-1,6
 204 23 204 23 187.5 6 c 128,-1,7
 171 -11 171 -11 148 -11 c 0,8,9
 124 -11 124 -11 107 6 c 128,-1,0
 90 23 90 23 90 46 c 128,-1,1
132 184 m 1,10,-1
 105 567 l 1,11,-1
 102 625 l 1,12,13
 102 662 102 662 114.5 676 c 128,-1,14
 127 690 127 690 152 690 c 0,15,16
 189 690 189 690 189 644 c 0,17,18
 189 605 189 605 184 557 c 2,19,-1
 148 186 l 1,20,-1
 132 184 l 1,10,-1
EndSplineSet
EndChar

StartChar: ampersand
Encoding: 38 38 11
Width: 738
VWidth: 1000
Flags: W
HStem: -11 64<534.151 642.619> -8 39<218.807 364.483> 361 38<348 475.493 554 699.703> 663 35<270.243 363.5>
VStem: 49 78<125.948 283.831> 181 61<449.482 612.104> 374 72<524.079 637.048> 512 51<199.332 329.093> 713 21<153.439 185.707>
LayerCount: 2
Fore
SplineSet
346 356 m 1,0,-1
 348 399 l 1,1,2
 404 396 404 396 548 396 c 0,3,4
 674 396 674 396 704 399 c 1,5,-1
 701 351 l 1,6,7
 660 358 660 358 554 358 c 1,8,9
 563 320 563 320 563 295 c 0,10,11
 563 211 563 211 489 115 c 1,12,-1
 492 112 l 1,13,14
 547 53 547 53 597 53 c 0,15,16
 681 53 681 53 713 189 c 1,17,-1
 734 184 l 1,18,19
 727 147 727 147 715.5 115.5 c 128,-1,20
 704 84 704 84 685 54 c 128,-1,21
 666 24 666 24 635.5 6.5 c 128,-1,22
 605 -11 605 -11 566 -11 c 0,23,24
 497 -11 497 -11 436 48 c 1,25,-1
 431 52 l 1,26,27
 356 -8 356 -8 278 -8 c 0,28,29
 166 -8 166 -8 111 47 c 0,30,31
 49 109 49 109 49 195 c 0,32,33
 49 260 49 260 83.5 301.5 c 128,-1,34
 118 343 118 343 207 397 c 1,35,36
 181 460 181 460 181 520 c 0,37,38
 181 592 181 592 226 645 c 128,-1,39
 271 698 271 698 344 698 c 0,40,41
 383 698 383 698 414.5 672 c 128,-1,42
 446 646 446 646 446 606 c 0,43,44
 446 538 446 538 399 495 c 0,45,46
 379 477 379 477 337.5 451 c 128,-1,47
 296 425 296 425 278 416 c 1,48,49
 349 259 349 259 474 131 c 1,50,51
 512 187 512 187 512 266 c 0,52,53
 512 309 512 309 476 345 c 0,54,55
 460 361 460 361 415 361 c 0,56,57
 384 361 384 361 346 356 c 1,0,-1
416 68 m 1,58,59
 283 216 283 216 216 376 c 1,60,61
 127 317 127 317 127 218 c 0,62,63
 127 145 127 145 174 88 c 128,-1,64
 221 31 221 31 293 31 c 0,65,66
 370 31 370 31 416 68 c 1,58,59
270 435 m 1,67,68
 332 474 332 474 353 503.5 c 128,-1,69
 374 533 374 533 374 582 c 0,70,71
 374 609 374 609 352.5 636 c 128,-1,72
 331 663 331 663 307 663 c 0,73,74
 279 663 279 663 263.5 645 c 128,-1,75
 248 627 248 627 245 607.5 c 128,-1,76
 242 588 242 588 242 559 c 0,77,78
 242 501 242 501 270 435 c 1,67,68
EndSplineSet
EndChar

StartChar: quotesingle
Encoding: 39 39 12
Width: 212
VWidth: 1000
Flags: W
HStem: 436 259<88 104>
VStem: 68 66<491.219 687.264>
LayerCount: 2
Fore
SplineSet
88 436 m 1,0,-1
 70 629 l 2,1,2
 68 653 68 653 68 666 c 0,3,4
 68 680 68 680 78.5 687.5 c 128,-1,5
 89 695 89 695 104 695 c 0,6,7
 134 695 134 695 134 662 c 0,8,9
 134 648 134 648 130 622 c 2,10,-1
 104 436 l 1,11,-1
 88 436 l 1,0,-1
EndSplineSet
EndChar

StartChar: parenleft
Encoding: 40 40 13
Width: 389
VWidth: 1000
Flags: W
HStem: 711 27<272.877 301>
VStem: 113 52<57.6289 489.84>
LayerCount: 2
Fore
SplineSet
301 -163 m 1,0,-1
 301 -187 l 1,1,2
 230 -181 230 -181 188.5 -115 c 128,-1,3
 147 -49 147 -49 131 38 c 0,4,5
 113 141 113 141 113 280 c 0,6,7
 113 410 113 410 133 510 c 0,8,9
 174 716 174 716 301 738 c 1,10,-1
 301 711 l 1,11,12
 165 677 165 677 165 274 c 0,13,14
 165 211 165 211 166.5 165 c 128,-1,15
 168 119 168 119 176 56 c 128,-1,16
 184 -7 184 -7 197.5 -48.5 c 128,-1,17
 211 -90 211 -90 237.5 -123 c 128,-1,18
 264 -156 264 -156 301 -163 c 1,0,-1
EndSplineSet
EndChar

StartChar: parenright
Encoding: 41 41 14
Width: 389
VWidth: 1000
Flags: W
HStem: -189 24<86 117.637>
VStem: 224 52<6.16162 490.324>
LayerCount: 2
Fore
SplineSet
86 709 m 1,0,-1
 86 736 l 1,1,2
 276 697 276 697 276 272 c 0,3,4
 276 220 276 220 274 179 c 128,-1,5
 272 138 272 138 266.5 82.5 c 128,-1,6
 261 27 261 27 248 -15 c 128,-1,7
 235 -57 235 -57 215 -96.5 c 128,-1,8
 195 -136 195 -136 162 -159.5 c 128,-1,9
 129 -183 129 -183 86 -189 c 1,10,-1
 86 -165 l 1,11,12
 164 -145 164 -145 190 -67 c 0,13,14
 207 -17 207 -17 215 50.5 c 128,-1,15
 223 118 223 118 223.5 154.5 c 128,-1,16
 224 191 224 191 224 276 c 0,17,18
 224 413 224 413 205 511 c 0,19,20
 195 560 195 560 185.5 591.5 c 128,-1,21
 176 623 176 623 150 659.5 c 128,-1,22
 124 696 124 696 86 709 c 1,0,-1
EndSplineSet
EndChar

StartChar: asterisk
Encoding: 42 42 15
Width: 278
VWidth: 1000
Flags: W
HStem: 448 244
VStem: 126 20<454.059 552>
LayerCount: 2
Fore
SplineSet
157 448 m 1,0,-1
 117 448 l 1,1,2
 125 496 125 496 126 559 c 1,3,4
 80 523 80 523 49 487 c 1,5,-1
 28 522 l 1,6,7
 66 541 66 541 115 575 c 1,8,9
 76 603 76 603 30 627 c 1,10,-1
 57 655 l 1,11,12
 95 619 95 619 125 596 c 1,13,14
 125 659 125 659 117 692 c 1,15,-1
 157 692 l 1,16,17
 150 657 150 657 146 597 c 1,18,19
 184 627 184 627 214 659 c 1,20,-1
 239 628 l 1,21,22
 195 607 195 607 151 576 c 1,23,24
 206 536 206 536 239 520 c 1,25,-1
 213 491 l 1,26,27
 186 521 186 521 146 552 c 1,28,29
 148 489 148 489 157 448 c 1,0,-1
EndSplineSet
EndChar

StartChar: plus
Encoding: 43 43 16
Width: 756
VWidth: 1000
Flags: W
HStem: 236 40<53 356 396 704>
VStem: 356 40<-67 236 276 580>
LayerCount: 2
Fore
SplineSet
396 276 m 1,0,-1
 709 276 l 1,1,-1
 704 236 l 1,2,-1
 396 236 l 1,3,-1
 396 -67 l 1,4,-1
 356 -74 l 1,5,-1
 356 236 l 1,6,-1
 46 236 l 1,7,-1
 53 276 l 1,8,-1
 356 276 l 1,9,-1
 356 580 l 1,10,-1
 396 586 l 1,11,-1
 396 276 l 1,0,-1
EndSplineSet
EndChar

StartChar: comma
Encoding: 44 44 17
Width: 278
VWidth: 1000
Flags: W
VStem: 67 120.5<46.1351 114.42> 157 57<-101.224 -8.20587>
LayerCount: 2
Fore
SplineSet
110 -210 m 1,0,-1
 91 -196 l 1,1,2
 157 -109 157 -109 157 -61 c 0,3,4
 157 -35 157 -35 144 -19 c 2,5,-1
 74 64 l 2,6,7
 67 73 67 73 67 90 c 0,8,9
 67 109 67 109 86.5 123.5 c 128,-1,10
 106 138 106 138 126 138 c 0,11,12
 161 138 161 138 187.5 74.5 c 128,-1,13
 214 11 214 11 214 -27 c 0,14,15
 214 -63 214 -63 190 -104.5 c 128,-1,16
 166 -146 166 -146 110 -210 c 1,0,-1
EndSplineSet
EndChar

StartChar: minus
Encoding: 45 8722 18
Width: 756
VWidth: 1000
Flags: W
HStem: 236 40<53 704>
LayerCount: 2
Fore
SplineSet
704 236 m 1,0,-1
 46 236 l 1,1,-1
 53 276 l 1,2,-1
 710 276 l 1,3,-1
 704 236 l 1,0,-1
EndSplineSet
EndChar

StartChar: period
Encoding: 46 46 19
Width: 278
VWidth: 1000
Flags: W
HStem: -15 134<97.1115 190.889>
VStem: 77 134<5.11145 98.8885>
LayerCount: 2
Fore
SplineSet
77 52 m 128,-1,1
 77 80 77 80 96.5 99.5 c 128,-1,2
 116 119 116 119 144 119 c 128,-1,3
 172 119 172 119 191.5 99.5 c 128,-1,4
 211 80 211 80 211 52 c 128,-1,5
 211 24 211 24 191.5 4.5 c 128,-1,6
 172 -15 172 -15 144 -15 c 128,-1,7
 116 -15 116 -15 96.5 4.5 c 128,-1,0
 77 24 77 24 77 52 c 128,-1,1
EndSplineSet
EndChar

StartChar: slash
Encoding: 47 47 20
Width: 502
VWidth: 1000
Flags: W
LayerCount: 2
Fore
SplineSet
458 715 m 1,0,-1
 463 704 l 1,1,-1
 74 -192 l 1,2,-1
 42 -184 l 1,3,-1
 39 -170 l 1,4,-1
 425 718 l 1,5,-1
 436 720 l 1,6,-1
 458 715 l 1,0,-1
EndSplineSet
EndChar

StartChar: zero
Encoding: 48 48 21
Width: 502
VWidth: 1000
Flags: W
HStem: -13 66<197.535 298.273>
VStem: 41 78<147.743 300.039> 381 75<158.402 307.649>
LayerCount: 2
Fore
SplineSet
261 493 m 1,0,1
 339 470 339 470 397.5 404 c 128,-1,2
 456 338 456 338 456 260 c 0,3,4
 456 162 456 162 379 74.5 c 128,-1,5
 302 -13 302 -13 213 -13 c 0,6,7
 132 -13 132 -13 86.5 50.5 c 128,-1,8
 41 114 41 114 41 198 c 0,9,10
 41 289 41 289 104 365.5 c 128,-1,11
 167 442 167 442 261 493 c 1,0,1
195 418 m 1,12,13
 119 372 119 372 119 249 c 0,14,15
 119 176 119 176 159.5 114.5 c 128,-1,16
 200 53 200 53 268 53 c 0,17,18
 381 53 381 53 381 212 c 0,19,20
 381 291 381 291 329 351.5 c 128,-1,21
 277 412 277 412 195 418 c 1,12,13
EndSplineSet
EndChar

StartChar: one
Encoding: 49 49 22
Width: 502
VWidth: 1000
Flags: W
HStem: 6 37<46 205.842 302.918 459> 433 27<104 176.691> 449 20G<257 309>
VStem: 212 84.5<49.2053 412>
LayerCount: 2
Fore
SplineSet
299 469 m 1,0,-1
 309 461 l 1,1,2
 297 369 297 369 297 229 c 0,3,4
 297 223 297 223 296.5 190.5 c 128,-1,5
 296 158 296 158 296.5 139 c 128,-1,6
 297 120 297 120 298.5 94.5 c 128,-1,7
 300 69 300 69 304.5 56 c 128,-1,8
 309 43 309 43 317 43 c 0,9,10
 388 43 388 43 460 46 c 1,11,-1
 459 -1 l 1,12,13
 338 6 338 6 252 6 c 0,14,15
 144 6 144 6 46 -1 c 1,16,-1
 46 44 l 1,17,18
 94 43 94 43 190 43 c 0,19,20
 201 43 201 43 206 49 c 1,21,22
 212 54 212 54 212 260 c 0,23,24
 212 362 212 362 205 391 c 0,25,26
 200 412 200 412 178 419.5 c 128,-1,27
 156 427 156 427 114.172 431.755 c 0,28,29
 107 433 107 433 104 433 c 1,30,-1
 103 460 l 1,31,32
 215 460 215 460 299 469 c 1,0,-1
EndSplineSet
EndChar

StartChar: two
Encoding: 50 50 23
Width: 502
VWidth: 1000
Flags: W
HStem: 1 72<237.478 460> 1 64<176.004 424.637> 415 59<200.357 303.091>
VStem: 309 76<300.691 388.204>
LayerCount: 2
Fore
SplineSet
475 73 m 1,0,-1
 485 67 l 1,1,-1
 460 1 l 1,2,-1
 61 1 l 1,3,-1
 59 17 l 1,4,-1
 159 111 l 2,5,6
 309 252 309 252 309 333 c 0,7,8
 309 366 309 366 284.5 390.5 c 128,-1,9
 260 415 260 415 226 415 c 0,10,11
 196 415 196 415 114 367 c 1,12,-1
 104 385 l 1,13,14
 207 474 207 474 282 474 c 0,15,16
 324 474 324 474 354.5 443.5 c 128,-1,17
 385 413 385 413 385 372 c 0,18,19
 385 287 385 287 196.202 94.552 c 0,20,21
 185 83 185 83 180 78 c 0,22,23
 176 74 176 74 176 73 c 0,24,25
 176 65 176 65 192 65 c 0,26,27
 445 73 445 73 475 73 c 1,0,-1
EndSplineSet
EndChar

StartChar: three
Encoding: 51 51 24
Width: 502
VWidth: 1000
Flags: W
HStem: -182 33<94.7898 246.417> 170 34<128 211.291 249 272.126> 422 52<186.534 272.812>
VStem: 306 79<295.969 388.841> 338 92<-51.9934 115>
LayerCount: 2
Fore
SplineSet
246 210 m 1,0,-1
 249 203 l 1,1,2
 326 203 326 203 378 160 c 128,-1,3
 430 117 430 117 430 42 c 0,4,5
 430 -54 430 -54 354.5 -118 c 128,-1,6
 279 -182 279 -182 181 -182 c 0,7,8
 110 -182 110 -182 38 -141 c 1,9,-1
 54 -114 l 1,10,11
 120 -149 120 -149 169 -149 c 0,12,13
 248 -149 248 -149 293 -97 c 128,-1,14
 338 -45 338 -45 338 29 c 0,15,16
 338 97 338 97 300 135 c 0,17,18
 263 171 263 171 159 171 c 0,19,20
 154 171 154 171 143.5 170.5 c 128,-1,21
 133 170 133 170 128 170 c 1,22,-1
 128 204 l 1,23,24
 158 206 158 206 187 213.5 c 128,-1,25
 216 221 216 221 244 234.5 c 128,-1,26
 272 248 272 248 289 271.5 c 128,-1,27
 306 295 306 295 306 326 c 0,28,29
 306 367 306 367 279 394.5 c 128,-1,30
 252 422 252 422 209 422 c 0,31,32
 178 422 178 422 128 385 c 1,33,-1
 112 396 l 1,34,35
 194 474 194 474 265 474 c 0,36,37
 315 474 315 474 350 445.5 c 128,-1,38
 385 417 385 417 385 368 c 0,39,40
 385 269 385 269 246 210 c 1,0,-1
EndSplineSet
EndChar

StartChar: four
Encoding: 52 52 25
Width: 502
VWidth: 1000
Flags: W
HStem: -1 42<79 306 387 474>
VStem: 306 78<-160.915 -1 41 365>
LayerCount: 2
Fore
SplineSet
380 476 m 1,0,-1
 385 473 l 1,1,2
 381 307 381 307 381 222 c 0,3,4
 381 132 381 132 384 40 c 1,5,6
 448 42 448 42 482 45 c 1,7,-1
 474 -1 l 1,8,-1
 387 -1 l 1,9,10
 387 -128 387 -128 389 -162 c 1,11,-1
 311 -192 l 1,12,-1
 299 -183 l 1,13,14
 306 -112 306 -112 306 -1 c 1,15,-1
 10 -1 l 1,16,-1
 10 22 l 1,17,-1
 299 451 l 1,18,-1
 380 476 l 1,0,-1
83 41 m 1,19,-1
 306 41 l 1,20,21
 306 287 306 287 299 365 c 1,22,-1
 287 365 l 1,23,24
 173 223 173 223 79 41 c 1,25,-1
 83 41 l 1,19,-1
EndSplineSet
EndChar

StartChar: five
Encoding: 53 53 26
Width: 502
VWidth: 1000
Flags: W
HStem: -184 30<73.6448 231.834> -154 20G<49.4 85> 169 46<147.596 280.413> 378 80<121 397>
VStem: 81 40<190 378> 335 106<-54.4238 110.477>
LayerCount: 2
Fore
SplineSet
421 458 m 1,0,-1
 397 378 l 1,1,-1
 138 378 l 2,2,3
 121 378 121 378 121 366 c 2,4,-1
 121 190 l 1,5,-1
 130 185 l 1,6,7
 193 215 193 215 259 215 c 0,8,9
 337 215 337 215 389 167.5 c 128,-1,10
 441 120 441 120 441 42 c 0,11,12
 441 -35 441 -35 397 -88 c 128,-1,13
 353 -141 353 -141 291 -162.5 c 128,-1,14
 229 -184 229 -184 156 -184 c 0,15,16
 105 -184 105 -184 47 -159 c 1,17,-1
 59 -134 l 1,18,19
 111 -154 111 -154 156 -154 c 0,20,21
 234 -154 234 -154 284.5 -103.5 c 128,-1,22
 335 -53 335 -53 335 23 c 0,23,24
 335 85 335 85 301.5 127 c 128,-1,25
 268 169 268 169 206 169 c 0,26,27
 149 169 149 169 99 114 c 1,28,-1
 81 125 l 1,29,-1
 81 458 l 1,30,-1
 421 458 l 1,0,-1
EndSplineSet
EndChar

StartChar: six
Encoding: 54 54 27
Width: 502
VWidth: 1000
Flags: W
HStem: -13 39<213.86 325.593> 318 59<217.199 354.571> 641 59<315.404 449.245>
VStem: 45 84<306 388> 392 79<121.88 247.637>
LayerCount: 2
Fore
SplineSet
460 691 m 1,0,-1
 451 634 l 1,1,-1
 444 629 l 1,2,3
 416 641 416 641 384 641 c 0,4,5
 301 640 301 640 224 568 c 0,6,7
 131 481 131 481 129 306 c 1,8,-1
 136 305 l 1,9,10
 225 377 225 377 321 377 c 0,11,12
 387 377 387 377 429 327.5 c 128,-1,13
 471 278 471 278 471 211 c 0,14,15
 471 124 471 124 398.5 55.5 c 128,-1,16
 326 -13 326 -13 236 -13 c 0,17,18
 186 -13 186 -13 147.5 10 c 128,-1,19
 109 33 109 33 87.5 70.5 c 128,-1,20
 66 108 66 108 55.5 150.5 c 128,-1,21
 45 193 45 193 45 238 c 0,22,23
 45 334 45 334 79 422 c 128,-1,24
 113 510 113 510 179 576 c 1,25,26
 297 700 297 700 416 700 c 0,27,28
 435 700 435 700 460 691 c 1,0,-1
132 275 m 1,29,30
 150 26 150 26 272 26 c 0,31,32
 392 26 392 26 392 172 c 0,33,34
 392 232 392 232 348 275 c 128,-1,35
 304 318 304 318 246 318 c 0,36,37
 209 318 209 318 186 308 c 128,-1,38
 163 298 163 298 132 275 c 1,29,30
EndSplineSet
EndChar

StartChar: seven
Encoding: 55 55 28
Width: 502
VWidth: 1000
Flags: W
HStem: 382 86<87.3328 344.109> 382 76<92.696 396>
LayerCount: 2
Fore
SplineSet
297 458 m 2,0,-1
 498 458 l 1,1,-1
 498 442 l 1,2,3
 230 62 230 62 113 -181 c 1,4,-1
 40 -181 l 1,5,-1
 37 -168 l 1,6,7
 164 9 164 9 396 377 c 1,8,9
 395 377 395 377 390 382 c 1,10,-1
 58 382 l 1,11,-1
 90 468 l 1,12,13
 176 458 176 458 297 458 c 2,0,-1
EndSplineSet
EndChar

StartChar: eight
Encoding: 56 56 29
Width: 502
VWidth: 1000
Flags: W
HStem: -10 31<199.967 312.379>
VStem: 40 83<94.4258 243.12> 89 75<499.332 610.081> 349 86<491.343 614.006> 375 86<106.768 241.082>
LayerCount: 2
Fore
SplineSet
220 344 m 1,0,1
 174 320 174 320 148.5 274.5 c 128,-1,2
 123 229 123 229 123 177 c 0,3,4
 123 119 123 119 161.5 70 c 128,-1,5
 200 21 200 21 255 21 c 0,6,7
 375 21 375 21 375 168 c 0,8,9
 375 189 375 189 367.5 209 c 128,-1,10
 360 229 360 229 352.5 241.5 c 128,-1,11
 345 254 345 254 324 271.5 c 128,-1,12
 303 289 303 289 294.5 295.5 c 128,-1,13
 286 302 286 302 256 321 c 128,-1,14
 226 340 226 340 220 344 c 1,0,1
300 394 m 1,15,16
 397.755 324.427 397.755 324.427 421.722 298.561 c 0,17,18
 461 256.172 461 256.172 461 197 c 0,19,20
 461 108 461 108 390 49 c 128,-1,21
 319 -10 319 -10 219 -10 c 0,22,23
 142 -10 142 -10 91 35 c 128,-1,24
 40 80 40 80 40 157 c 0,25,26
 40 194 40 194 53 225 c 128,-1,27
 66 256 66 256 93 281 c 128,-1,28
 120 306 120 306 144 322.5 c 128,-1,29
 168 339 168 339 205 360 c 1,30,31
 89 437 89 437 89 530 c 0,32,33
 89 596 89 596 134 636 c 128,-1,34
 179 676 179 676 254 706 c 1,35,36
 435 693 435 693 435 568 c 0,37,38
 435 469 435 469 300 394 c 1,15,16
283 410 m 1,39,40
 314 431 314 431 331.5 467 c 128,-1,41
 349 503 349 503 349 544 c 0,42,43
 349 595 349 595 314.5 628 c 128,-1,44
 280 661 280 661 236 677 c 1,45,46
 164 652 164 652 164 563 c 0,47,48
 164 490 164 490 283 410 c 1,39,40
EndSplineSet
EndChar

StartChar: nine
Encoding: 57 57 30
Width: 502
VWidth: 1000
Flags: W
HStem: -182 28<72 177.215> 34 60<179.999 279.437> 450 20G<175 269>
VStem: 27 89<170.11 336.908> 369 99<134.057 322.634>
LayerCount: 2
Fore
SplineSet
359 102 m 1,0,-1
 353 106 l 1,1,2
 265 34 265 34 204 34 c 1,3,4
 118 40 118 40 72.5 97 c 128,-1,5
 27 154 27 154 27 234 c 0,6,7
 27 326 27 326 78 377 c 0,8,9
 116 415 116 415 234 470 c 1,10,11
 304 464 304 464 331 454 c 0,12,13
 468 406 468 406 468 200 c 0,14,15
 468 33 468 33 353 -82 c 0,16,17
 253 -182 253 -182 72 -182 c 1,18,-1
 72 -154 l 1,19,20
 206 -154 206 -154 279 -81 c 0,21,22
 339 -21 339 -21 359 102 c 1,0,-1
339 125 m 0,23,24
 369 155 369 155 369 204 c 0,25,26
 369 290 369 290 329.5 357 c 128,-1,27
 290 424 290 424 208 434 c 1,28,29
 163 413 163 413 139.5 365.5 c 128,-1,30
 116 318 116 318 116 264 c 0,31,32
 116 201 116 201 151 147.5 c 128,-1,33
 186 94 186 94 246 94 c 0,34,35
 308 94 308 94 339 125 c 0,23,24
EndSplineSet
EndChar

StartChar: colon
Encoding: 58 58 31
Width: 216
VWidth: 1000
Flags: W
HStem: -12 114<67.533 152.253> 341 114<67.533 152.253>
VStem: 50 114<5.53271 84.4673 358.533 437.467>
LayerCount: 2
Fore
SplineSet
50 45 m 128,-1,1
 50 68 50 68 67 85 c 128,-1,2
 84 102 84 102 108 102 c 0,3,4
 131 102 131 102 147.5 85 c 128,-1,5
 164 68 164 68 164 45 c 128,-1,6
 164 22 164 22 147.5 5 c 128,-1,7
 131 -12 131 -12 108 -12 c 0,8,9
 84 -12 84 -12 67 5 c 128,-1,0
 50 22 50 22 50 45 c 128,-1,1
50 398 m 128,-1,11
 50 421 50 421 67 438 c 128,-1,12
 84 455 84 455 108 455 c 0,13,14
 131 455 131 455 147.5 438 c 128,-1,15
 164 421 164 421 164 398 c 128,-1,16
 164 375 164 375 147.5 358 c 128,-1,17
 131 341 131 341 108 341 c 0,18,19
 84 341 84 341 67 358 c 128,-1,10
 50 375 50 375 50 398 c 128,-1,11
EndSplineSet
EndChar

StartChar: semicolon
Encoding: 59 59 32
Width: 216
VWidth: 1000
Flags: W
HStem: 343 114<65.533 150.253>
VStem: 48 114<360.533 439.467> 121 58<-94.8436 -12.4772>
LayerCount: 2
Fore
SplineSet
48 400 m 128,-1,1
 48 423 48 423 65 440 c 128,-1,2
 82 457 82 457 106 457 c 0,3,4
 129 457 129 457 145.5 440 c 128,-1,5
 162 423 162 423 162 400 c 128,-1,6
 162 377 162 377 145.5 360 c 128,-1,7
 129 343 129 343 106 343 c 0,8,9
 82 343 82 343 65 360 c 128,-1,0
 48 377 48 377 48 400 c 128,-1,1
89 -190 m 1,10,-1
 74 -177 l 1,11,12
 121 -114 121 -114 121 -64 c 0,13,14
 121 -48 121 -48 108 -26 c 1,15,-1
 74 25 l 2,16,17
 65 39 65 39 65 51 c 0,18,19
 65 77 65 77 74 86 c 2,20,-1
 76 88 l 1,21,22
 90 99 90 99 108 99 c 0,23,24
 132 99 132 99 155.5 55 c 128,-1,25
 179 11 179 11 179 -22 c 0,26,27
 179 -50 179 -50 162 -84.5 c 128,-1,28
 145 -119 145 -119 132 -136 c 128,-1,29
 119 -153 119 -153 89 -190 c 1,10,-1
EndSplineSet
EndChar

StartChar: equal
Encoding: 61 61 33
Width: 756
VWidth: 1000
Flags: W
HStem: 132 40<61 716> 329 40<61 716>
LayerCount: 2
Fore
SplineSet
716 329 m 1,0,-1
 54 329 l 1,1,-1
 61 369 l 1,2,-1
 722 369 l 1,3,-1
 716 329 l 1,0,-1
716 132 m 1,4,-1
 54 132 l 1,5,-1
 61 172 l 1,6,-1
 722 172 l 1,7,-1
 716 132 l 1,4,-1
EndSplineSet
EndChar

StartChar: question
Encoding: 63 63 34
Width: 362
VWidth: 1000
Flags: W
HStem: -11 114<117.747 202.467> 661 32<149.135 234.018>
VStem: 45 63<516.598 620.522> 98 61<226.023 300.004> 106 114<6.53271 85.4673> 287 71<489.981 612.563>
LayerCount: 2
Fore
SplineSet
106 46 m 128,-1,1
 106 69 106 69 122.5 86 c 128,-1,2
 139 103 139 103 162 103 c 0,3,4
 186 103 186 103 203 86 c 128,-1,5
 220 69 220 69 220 46 c 128,-1,6
 220 23 220 23 203 6 c 128,-1,7
 186 -11 186 -11 162 -11 c 0,8,9
 139 -11 139 -11 122.5 6 c 128,-1,0
 106 23 106 23 106 46 c 128,-1,1
186 211 m 1,10,-1
 140 179 l 1,11,12
 98 205 98 205 98 250 c 0,13,14
 98 273 98 273 124 305 c 1,15,16
 142 329 142 329 175.5 361 c 128,-1,17
 209 393 209 393 230.5 414.5 c 128,-1,18
 252 436 252 436 269.5 471 c 128,-1,19
 287 506 287 506 287 545 c 0,20,21
 287 586 287 586 256.5 623.5 c 128,-1,22
 226 661 226 661 189 661 c 0,23,24
 158 661 158 661 133 641 c 128,-1,25
 108 621 108 621 108 589 c 0,26,27
 108 553 108 553 140 528 c 1,28,-1
 73 488 l 1,29,30
 45 513 45 513 45 557 c 0,31,32
 45 615 45 615 104.5 654 c 128,-1,33
 164 693 164 693 229 693 c 0,34,35
 286 693 286 693 322 657.5 c 128,-1,36
 358 622 358 622 358 565 c 0,37,38
 358 527 358 527 328 476 c 0,39,40
 313 450 313 450 282.5 420 c 128,-1,41
 252 390 252 390 225.5 368.5 c 128,-1,42
 199 347 199 347 179 321 c 128,-1,43
 159 295 159 295 159 274 c 0,44,45
 159 242 159 242 186 222 c 1,46,-1
 186 211 l 1,10,-1
EndSplineSet
EndChar

StartChar: A
Encoding: 65 65 35
Width: 718
VWidth: 1000
Flags: W
HStem: 633 53<175.511 280.861>
VStem: 22 64<494.513 565.903> 112 69<327.279 397.5> 368 80<383.14 542.187> 501 80<136.382 601>
LayerCount: 2
Fore
SplineSet
400 319 m 1,0,-1
 222 155 l 1,1,2
 266 155 266 155 309 112 c 2,3,-1
 357 64 l 1,4,5
 370 65 370 65 501 149 c 1,6,-1
 501 474 l 2,7,8
 501 504 501 504 496 601 c 1,9,-1
 623 697 l 1,10,-1
 639 686 l 1,11,12
 604 656 604 656 597 644 c 0,13,14
 593 639 593 639 590 627 c 128,-1,15
 587 615 587 615 585 596.5 c 128,-1,16
 583 578 583 578 582 560.5 c 128,-1,17
 581 543 581 543 581 516 c 128,-1,18
 581 489 581 489 581 470.5 c 128,-1,19
 581 452 581 452 581 422 c 128,-1,20
 581 392 581 392 581 378 c 0,21,22
 581 297 581 297 586 197 c 0,23,24
 588 174 588 174 591 165 c 0,25,26
 625 76 625 76 643 76 c 0,27,28
 656 76 656 76 703 101 c 1,29,-1
 709 85 l 1,30,-1
 565 -27 l 1,31,32
 532 25 532 25 502 123 c 1,33,-1
 299 -27 l 1,34,35
 237 77 237 77 153 77 c 0,36,37
 111 77 111 77 48 37 c 1,38,-1
 32 48 l 1,39,-1
 144 133 l 2,40,41
 151 138 151 138 172 154 c 128,-1,42
 193 170 193 170 202 177.5 c 128,-1,43
 211 185 211 185 229.5 199 c 128,-1,44
 248 213 248 213 258.5 222.5 c 128,-1,45
 269 232 269 232 282.5 244.5 c 128,-1,46
 296 257 296 257 306.5 268.5 c 128,-1,47
 317 280 317 280 325 291 c 0,48,49
 368 347 368 347 368 452 c 0,50,51
 368 526 368 526 319 579.5 c 128,-1,52
 270 633 270 633 197 633 c 0,53,54
 155 633 155 633 120.5 606 c 128,-1,55
 86 579 86 579 86 538 c 0,56,57
 86 523 86 523 101 503.5 c 128,-1,58
 116 484 116 484 133.5 468 c 128,-1,59
 151 452 151 452 166 429.5 c 128,-1,60
 181 407 181 407 181 388 c 0,61,62
 181 348 181 348 146.5 313 c 128,-1,63
 112 278 112 278 64 255 c 1,64,-1
 48 266 l 1,65,66
 112 302 112 302 112 346 c 0,67,68
 112 358 112 358 101 373 c 0,69,70
 92 386 92 386 68.5 411.5 c 128,-1,71
 45 437 45 437 33.5 458 c 128,-1,72
 22 479 22 479 22 506 c 0,73,74
 22 525 22 525 31.5 544 c 128,-1,75
 41 563 41 563 51 574.5 c 128,-1,76
 61 586 61 586 79 604 c 0,77,78
 104 629 104 629 161.5 657.5 c 128,-1,79
 219 686 219 686 272 686 c 0,80,81
 345 686 345 686 396.5 637 c 128,-1,82
 448 588 448 588 448 516 c 0,83,84
 448 417 448 417 400 319 c 1,0,-1
EndSplineSet
EndChar

StartChar: B
Encoding: 66 66 36
Width: 884
VWidth: 1000
Flags: W
HStem: -27 64<512.362 611.686> 0 21G<96.5714 147> 628 63<188.029 283.668 548.241 650.5>
VStem: 49 70<499.654 570.354> 134 74<328.725 401.5> 374 84<350 521.678> 714 85<123.941 256.394>
LayerCount: 2
Fore
SplineSet
538 -27 m 0,0,1
 481 -27 481 -27 384 10.5 c 128,-1,2
 287 48 287 48 251 48 c 0,3,4
 186 48 186 48 108 0 c 1,5,-1
 96 21 l 1,6,-1
 220 94 l 2,7,8
 359 175 359 175 367 252 c 0,9,10
 374 327 374 327 374 402 c 0,11,12
 374 512 374 512 323.5 570 c 128,-1,13
 273 628 273 628 216 628 c 0,14,15
 171 628 171 628 145 606 c 128,-1,16
 119 584 119 584 119 541 c 0,17,18
 119 526 119 526 163.5 470 c 128,-1,19
 208 414 208 414 208 389 c 0,20,21
 208 315 208 315 85 255 c 1,22,-1
 70 266 l 1,23,24
 94 279 94 279 114 301.5 c 128,-1,25
 134 324 134 324 134 347 c 0,26,27
 134 358 134 358 113 384 c 128,-1,28
 92 410 92 410 70.5 444 c 128,-1,29
 49 478 49 478 49 507 c 0,30,31
 49 554 49 554 100 605 c 0,32,33
 186 691 186 691 283 691 c 0,34,35
 324 691 324 691 364.5 657.5 c 128,-1,36
 405 624 405 624 427 580 c 1,37,38
 529 686 529 686 629 686 c 0,39,40
 672 686 672 686 693 665 c 0,41,42
 704 654 704 654 711 612.5 c 128,-1,43
 718 571 718 571 730.5 538 c 128,-1,44
 743 505 743 505 771 505 c 1,45,46
 792 508 792 508 815 516 c 1,47,-1
 815 494 l 1,48,49
 807 491 807 491 788.5 484 c 128,-1,50
 770 477 770 477 760.5 473 c 128,-1,51
 751 469 751 469 737 461.5 c 128,-1,52
 723 454 723 454 712 446 c 2,53,-1
 623 383 l 1,54,55
 704 383 704 383 751.5 339 c 128,-1,56
 799 295 799 295 799 224 c 0,57,58
 799 179 799 179 777 123 c 1,59,60
 674 36 674 36 626.5 4.5 c 128,-1,61
 579 -27 579 -27 538 -27 c 0,0,1
456 350 m 1,62,63
 468 354 468 354 499.5 365.5 c 128,-1,64
 531 377 531 377 540.5 380.5 c 128,-1,65
 550 384 550 384 573.5 393.5 c 128,-1,66
 597 403 597 403 610 410 c 128,-1,67
 623 417 623 417 643 429 c 128,-1,68
 663 441 663 441 684 455 c 1,69,70
 656 468 656 468 646 540 c 0,71,72
 639 590 639 590 620.5 612 c 128,-1,73
 602 634 602 634 570 634 c 0,74,75
 483 634 483 634 448 523 c 1,76,77
 458 481 458 481 458 399 c 0,78,79
 458 378 458 378 456 350 c 1,62,63
421 207 m 1,80,-1
 304 117 l 1,81,82
 362 117 362 117 464.5 77 c 128,-1,83
 567 37 567 37 602 37 c 0,84,85
 654 37 654 37 684 79.5 c 128,-1,86
 714 122 714 122 714 175 c 0,87,88
 714 247 714 247 659.5 294 c 128,-1,89
 605 341 605 341 533 341 c 0,90,91
 490 341 490 341 454 325 c 1,92,93
 448 259 448 259 421 207 c 1,80,-1
EndSplineSet
EndChar

StartChar: C
Encoding: 67 67 37
Width: 613
VWidth: 1000
Flags: W
HStem: -24 70<318.259 468.063> 239 16<220.624 237.586>
VStem: 59 80<227.22 451.042> 274 93<460.485 563.718> 304 96<320.19 477.819>
LayerCount: 2
Fore
SplineSet
267 601 m 1,0,-1
 299 585 l 1,1,2
 368 634 368 634 506 686 c 1,3,-1
 534 605 l 2,4,5
 538 596 538 596 540 592.5 c 128,-1,6
 542 589 542 589 548 585.5 c 128,-1,7
 554 582 554 582 563 582 c 0,8,9
 586 582 586 582 613 591 c 1,10,-1
 613 568 l 1,11,12
 540 533 540 533 496 527 c 1,13,14
 469 543 469 543 416 628 c 1,15,16
 396 622 396 622 384 606 c 128,-1,17
 372 590 372 590 369.5 579.5 c 128,-1,18
 367 569 367 569 367 560 c 0,19,20
 367 529 367 529 380 492 c 1,21,22
 400 428 400 428 400 399 c 0,23,24
 400 349 400 349 373 313.5 c 128,-1,25
 346 278 346 278 309.5 262 c 128,-1,26
 273 246 273 246 226 239 c 1,27,-1
 214 255 l 1,28,29
 255 265 255 265 288 298 c 0,30,31
 304 314 304 314 304 367 c 0,32,33
 304 386 304 386 289 446 c 128,-1,34
 274 506 274 506 274 534 c 0,35,36
 274 549 274 549 277 564 c 1,37,38
 228 563 228 563 195.5 529 c 128,-1,39
 163 495 163 495 151 452.5 c 128,-1,40
 139 410 139 410 139 362 c 0,41,42
 139 213 139 213 219 133 c 0,43,44
 305 46 305 46 444 46 c 0,45,46
 490 46 490 46 516 59 c 1,47,-1
 602 106 l 1,48,-1
 602 86 l 1,49,50
 554 46 554 46 458 -16 c 1,51,52
 422 -24 422 -24 376 -24 c 0,53,54
 228 -24 228 -24 138 65 c 0,55,56
 59 143 59 143 59 319 c 0,57,58
 59 414 59 414 102 500 c 1,59,60
 189 567 189 567 267 601 c 1,0,-1
EndSplineSet
EndChar

StartChar: D
Encoding: 68 68 38
Width: 832
VWidth: 1000
Flags: W
HStem: -27 75<433.24 526.495> -16 21G<32 73.5> 64 69<115.396 241.598> 612 78<239.854 492.805>
VStem: 27 21<378 433.063> 213 86<382.5 454.57> 299 90<217.02 290.475> 671 75<249.688 450.6>
LayerCount: 2
Fore
SplineSet
368 559 m 1,0,-1
 384 548 l 1,1,2
 357 530 357 530 328 498.5 c 128,-1,3
 299 467 299 467 299 442 c 0,4,5
 299 423 299 423 344 362.5 c 128,-1,6
 389 302 389 302 389 277 c 0,7,8
 389 194 389 194 241 131 c 1,9,10
 294 120 294 120 375 91 c 0,11,12
 493 48 493 48 512 48 c 128,-1,13
 531 48 531 48 546.5 53 c 128,-1,14
 562 58 562 58 570.5 62 c 128,-1,15
 579 66 579 66 592.5 82 c 128,-1,16
 606 98 606 98 609.5 103.5 c 128,-1,17
 613 109 613 109 629 133 c 0,18,19
 671 197 671 197 671 325 c 128,-1,20
 671 453 671 453 602 522 c 0,21,22
 512 612 512 612 346 612 c 0,23,24
 190 612 190 612 115 536 c 0,25,26
 53 474 53 474 48 367 c 1,27,-1
 27 378 l 1,28,29
 27 509 27 509 112 593 c 0,30,31
 160 640 160 640 230.5 665 c 128,-1,32
 301 690 301 690 373 690 c 0,33,34
 479 690 479 690 552 670 c 0,35,36
 636 646 636 646 691 572.5 c 128,-1,37
 746 499 746 499 746 410 c 0,38,39
 746 291 746 291 691 147 c 1,40,41
 532 -27 532 -27 469 -27 c 0,42,43
 446 -27 446 -27 357 8 c 0,44,45
 216 64 216 64 155 64 c 0,46,47
 99 64 99 64 48 -16 c 1,48,-1
 32 0 l 1,49,50
 70 75 70 75 139 133 c 1,51,52
 197 133 197 133 248 158 c 128,-1,53
 299 183 299 183 299 229 c 0,54,55
 299 266 299 266 267 303 c 0,56,57
 255 317 255 317 234 347 c 128,-1,58
 213 377 213 377 213 388 c 0,59,60
 213 478 213 478 368 559 c 1,0,-1
EndSplineSet
EndChar

StartChar: E
Encoding: 69 69 39
Width: 663
VWidth: 1000
Flags: W
HStem: -24 70<345.075 494.802> 218 16<243.832 260.435>
VStem: 86 79<227.023 451.5> 300 94<458.681 563.531> 332 94<369 464.983>
LayerCount: 2
Fore
SplineSet
293 601 m 1,0,-1
 325 585 l 1,1,2
 395 634 395 634 533 686 c 1,3,-1
 561 605 l 1,4,5
 567 592 567 592 572.5 587 c 128,-1,6
 578 582 578 582 593 582 c 0,7,8
 617 582 617 582 641 590 c 1,9,-1
 641 568 l 1,10,11
 566 533 566 533 522 527 c 1,12,13
 496 542 496 542 443 627 c 1,14,15
 426 621 426 621 410.5 602.5 c 128,-1,16
 395 584 395 584 394 566 c 0,17,18
 393 537 393 537 403 506 c 0,19,20
 426 437 426 437 426 369 c 1,21,-1
 528 431 l 1,22,23
 561 385 561 385 605 356 c 1,24,-1
 605 347 l 1,25,-1
 538 309 l 1,26,-1
 479 351 l 2,27,28
 471 356 471 356 464 356 c 0,29,30
 444 356 444 356 426 341 c 1,31,32
 404 241 404 241 251 218 c 1,33,-1
 235 234 l 1,34,35
 269 240 269 240 315 271 c 1,36,37
 332 290 332 290 332 344 c 0,38,39
 332 376 332 376 316 439 c 128,-1,40
 300 502 300 502 300 532 c 0,41,42
 300 549 300 549 304 564 c 1,43,44
 255 563 255 563 222 529 c 128,-1,45
 189 495 189 495 177 452.5 c 128,-1,46
 165 410 165 410 165 362 c 0,47,48
 165 213 165 213 245 133 c 0,49,50
 332 46 332 46 471 46 c 0,51,52
 532 46 532 46 629 106 c 1,53,-1
 629 86 l 1,54,55
 575 42 575 42 485 -16 c 1,56,57
 442 -24 442 -24 403 -24 c 0,58,59
 254 -24 254 -24 170 60 c 0,60,61
 86 143 86 143 86 319 c 0,62,63
 86 413 86 413 128 500 c 1,64,65
 219 569 219 569 293 601 c 1,0,-1
EndSplineSet
EndChar

StartChar: F
Encoding: 70 70 40
Width: 611
VWidth: 1000
Flags: W
HStem: -155 35<189.5 314.18> 162 57<64.4517 154.5> 463 21G<59 91> 500 80<455.127 530.608> 617 69<165.093 285>
VStem: 59 16<469.072 493.341> 103 76<-76.5547 91.4338> 110 83<-0.886169 160.266> 235 74<348.801 432.776> 405 80<-15.161 106.195>
LayerCount: 2
Fore
SplineSet
368 293 m 1,0,-1
 490 410 l 1,1,2
 531 368 531 368 544 330 c 1,3,-1
 501 271 l 1,4,5
 476 314 476 314 448 314 c 0,6,7
 426 314 426 314 377 274 c 1,8,-1
 464 162 l 1,9,10
 485 132 485 132 485 74 c 0,11,12
 485 -19 485 -19 401.5 -87 c 128,-1,13
 318 -155 318 -155 219 -155 c 0,14,15
 160 -155 160 -155 131.5 -111.5 c 128,-1,16
 103 -68 103 -68 103 -8 c 0,17,18
 103 8 103 8 106.5 41 c 128,-1,19
 110 74 110 74 110 92 c 0,20,21
 110 125 110 125 103 141.5 c 128,-1,22
 96 158 96 158 90.5 160 c 128,-1,23
 85 162 85 162 75 162 c 0,24,25
 49 162 49 162 16 144 c 1,26,-1
 11 165 l 1,27,28
 91 219 91 219 142 219 c 0,29,30
 167 219 167 219 180 193 c 128,-1,31
 193 167 193 167 193 134 c 0,32,33
 193 113 193 113 186 70.5 c 128,-1,34
 179 28 179 28 179 5 c 0,35,36
 179 -56 179 -56 208 -85 c 1,37,38
 241 -120 241 -120 272 -120 c 0,39,40
 333 -120 333 -120 369 -73 c 128,-1,41
 405 -26 405 -26 405 37 c 0,42,43
 405 60 405 60 387.5 96.5 c 128,-1,44
 370 133 370 133 357 152 c 128,-1,45
 344 171 344 171 315 213 c 0,46,47
 312 217 312 217 302 231 c 128,-1,48
 292 245 292 245 288 251 c 128,-1,49
 284 257 284 257 275.5 270 c 128,-1,50
 267 283 267 283 262.5 290.5 c 128,-1,51
 258 298 258 298 252 310 c 128,-1,52
 246 322 246 322 243 330.5 c 128,-1,53
 240 339 240 339 237.5 349 c 128,-1,54
 235 359 235 359 235 367 c 0,55,56
 235 414 235 414 279.5 460.5 c 128,-1,57
 324 507 324 507 384 543 c 1,58,59
 262 617 262 617 197 617 c 0,60,61
 107 617 107 617 75 463 c 1,62,-1
 59 474 l 1,63,64
 68 564 68 564 118 625 c 128,-1,65
 168 686 168 686 256 686 c 0,66,67
 296 686 296 686 347.5 659.5 c 128,-1,68
 399 633 399 633 447.5 606.5 c 128,-1,69
 496 580 496 580 528 580 c 0,70,71
 554 580 554 580 612 643 c 1,72,-1
 621 629 l 1,73,74
 554.951 539.745 554.951 539.745 523.391 516.147 c 0,75,76
 501.796 500 501.796 500 485 500 c 0,77,78
 453 500 453 500 412 525 c 1,79,80
 366 511 366 511 337.5 482.5 c 128,-1,81
 309 454 309 454 309 415 c 0,82,83
 309 372 309 372 368 293 c 1,0,-1
EndSplineSet
EndChar

StartChar: G
Encoding: 71 71 41
Width: 785
VWidth: 1000
Flags: W
HStem: -25 64<320.196 470.781> 213 16<227.832 240.273> 402 53<435.424 575.5> 672 20G<500.75 530.5>
VStem: 66 80<226.647 448.014> 281 92<437.363 563.219> 311 91<291.145 400.102> 624 87<195.695 326.237>
LayerCount: 2
Fore
SplineSet
672 606 m 1,0,-1
 496 452 l 1,1,2
 520 455 520 455 541 455 c 0,3,4
 610 455 610 455 655 418 c 0,5,6
 711 372 711 372 711 303 c 0,7,8
 711 187 711 187 618 96 c 1,9,-1
 464 -8 l 1,10,11
 416 -25 416 -25 381 -25 c 0,12,13
 316 -25 316 -25 252.5 -2 c 128,-1,14
 189 21 189 21 150 60 c 0,15,16
 66 144 66 144 66 319 c 0,17,18
 66 409 66 409 110 502 c 1,19,20
 197 565 197 565 272 601 c 1,21,-1
 304 585 l 1,22,-1
 416 660 l 1,23,-1
 426 649 l 1,24,25
 373 604 373 604 373 559 c 0,26,27
 373 529 373 529 399 422 c 1,28,-1
 450 449 l 1,29,30
 513 491 513 491 557 535 c 1,31,32
 520 548 520 548 490 573.5 c 128,-1,33
 460 599 460 599 454 628 c 1,34,-1
 522 692 l 1,35,36
 539 657 539 657 566 632 c 128,-1,37
 593 607 593 607 623 607 c 0,38,39
 646 607 646 607 668 629 c 1,40,-1
 672 606 l 1,0,-1
235 213 m 1,41,-1
 219 229 l 1,42,43
 258 238 258 238 284.5 271 c 128,-1,44
 311 304 311 304 311 348 c 0,45,46
 311 383 311 383 296 444 c 128,-1,47
 281 505 281 505 281 533 c 0,48,49
 281 548 281 548 284 564 c 1,50,51
 236 561 236 561 203.5 529 c 128,-1,52
 171 497 171 497 158.5 455.5 c 128,-1,53
 146 414 146 414 146 367 c 0,54,55
 146 211 146 211 229 128 c 0,56,57
 318 39 318 39 415 39 c 0,58,59
 501 39 501 39 555 83 c 0,60,61
 624 140 624 140 624 255 c 0,62,63
 624 317 624 317 570 359.5 c 128,-1,64
 516 402 516 402 452 402 c 0,65,66
 428 402 428 402 402 396 c 1,67,68
 402 308 402 308 365 271 c 0,69,70
 320 227 320 227 235 213 c 1,41,-1
EndSplineSet
EndChar

StartChar: H
Encoding: 72 72 42
Width: 720
VWidth: 1000
Flags: W
HStem: -133 53<398.906 487.252> -4 9G<-8 22.5 131 165.5> 36 80<59.5049 123.306> 404 64<400.909 493.773> 538 69<368.384 449.685>
VStem: 123 81<397.008 500.706> 224 70<118.109 212.007> 559.006 85.9941<42.9834 324.905>
LayerCount: 2
Fore
SplineSet
368 -107 m 1,0,-1
 416 -43 l 1,1,2
 434 -80 434 -80 474 -80 c 0,3,4
 494 -80 494 -80 509.5 -68.5 c 128,-1,5
 525 -57 525 -57 534 -33.5 c 128,-1,6
 543 -10 543 -10 548.5 12 c 128,-1,7
 554 34 554 34 556 70.5 c 128,-1,8
 558 107 558 107 558.5 126.5 c 128,-1,9
 559 146 559 146 559.006 181.506 c 0,10,11
 559 188 559 188 559 191 c 0,12,13
 559 404 559 404 421 404 c 0,14,15
 347 404 347 404 266 307 c 1,16,17
 294 238 294 238 294 185 c 0,18,19
 294 147 294 147 284 134 c 0,20,21
 259 100 259 100 215.5 47.5 c 128,-1,22
 172 -5 172 -5 159 -16 c 1,23,24
 103 36 103 36 70 36 c 0,25,26
 41 36 41 36 4 -4 c 1,27,-1
 -8 10 l 1,28,29
 16 53 16 53 49 84.5 c 128,-1,30
 82 116 82 116 111 116 c 0,31,32
 155 116 155 116 200 62 c 1,33,34
 221 88 221 88 224 131 c 1,35,36
 224 172 224 172 173.5 275 c 128,-1,37
 123 378 123 378 123 431 c 0,38,39
 123 529 123 529 320 667 c 1,40,41
 380 607 380 607 448 607 c 0,42,43
 454 607 454 607 459 608.5 c 128,-1,44
 464 610 464 610 468 611.5 c 128,-1,45
 472 613 472 613 479.5 618.5 c 128,-1,46
 487 624 487 624 492.5 628.5 c 128,-1,47
 498 633 498 633 511 643 c 128,-1,48
 524 653 524 653 534 661 c 1,49,-1
 547 646 l 1,50,51
 436 538 436 538 405 538 c 0,52,53
 355 538 355 538 253 590 c 1,54,55
 204 541 204 541 204 479 c 0,56,57
 204 439 204 439 256 330 c 1,58,59
 329 406 329 406 437 468 c 1,60,61
 547 468 547 468 618 415 c 1,62,63
 645 319 645 319 645 239 c 0,64,65
 645 80 645 80 602 -16 c 1,66,67
 475 -133 475 -133 437 -133 c 0,68,69
 394 -133 394 -133 368 -107 c 1,0,-1
EndSplineSet
EndChar

StartChar: I
Encoding: 73 73 43
Width: 554
VWidth: 1000
Flags: W
HStem: -27 45<171 294.792> -16 21G<38 71.6487> 456 21G<28 71.5> 601 85<139.843 282.531> 651 20G<492.5 533>
VStem: 360 89<227.289 474.383> 378 86<127.903 445.335>
LayerCount: 2
Fore
SplineSet
522 671 m 1,0,-1
 533 655 l 1,1,2
 459 586 459 586 378 543 c 1,3,4
 362 549 362 549 333 560 c 128,-1,5
 304 571 304 571 289 576.5 c 128,-1,6
 274 582 274 582 254 588.5 c 128,-1,7
 234 595 234 595 219 598 c 128,-1,8
 204 601 204 601 192 601 c 0,9,10
 98 601 98 601 45 456 c 1,11,-1
 28 467 l 1,12,13
 71 582 71 582 110 634 c 128,-1,14
 149 686 149 686 214 686 c 0,15,16
 258 686 258 686 368 633 c 0,17,18
 402 617 402 617 421 617 c 0,19,20
 463 617 463 617 522 671 c 1,0,-1
43 -16 m 1,21,-1
 38 0 l 1,22,23
 52 20 52 20 79.5 51 c 128,-1,24
 107 82 107 82 128 103.5 c 128,-1,25
 149 125 149 125 152 128 c 1,26,27
 183 61 183 61 197 47 c 0,28,29
 226 18 226 18 266 18 c 0,30,31
 297 18 297 18 320 36 c 128,-1,32
 343 54 343 54 355 83 c 128,-1,33
 367 112 367 112 372.5 143 c 128,-1,34
 378 174 378 174 378 207 c 0,35,36
 378 255 378 255 369 328 c 128,-1,37
 360 401 360 401 360 429 c 0,38,39
 360 441 360 441 362 463 c 1,40,41
 434 543 434 543 502 585 c 1,42,-1
 514 578 l 1,43,44
 449 519 449 519 449 464 c 0,45,46
 449 418 449 418 456.5 348.5 c 128,-1,47
 464 279 464 279 464 245 c 0,48,49
 464 133 464 133 405 74 c 0,50,51
 304 -27 304 -27 192 -27 c 0,52,53
 150 -27 150 -27 96 21 c 1,54,-1
 43 -16 l 1,21,-1
EndSplineSet
EndChar

StartChar: J
Encoding: 74 74 44
Width: 552
VWidth: 1000
Flags: W
HStem: -139 36<223.723 318.797> 80 64<50.4977 137.5> 602 84<159.651 254.43>
VStem: 329 87<223.13 401.005> 384 74<-5.95508 179.138>
LayerCount: 2
Fore
SplineSet
69 496 m 1,0,-1
 54 506 l 1,1,2
 82 577 82 577 126.5 631.5 c 128,-1,3
 171 686 171 686 224 686 c 0,4,5
 254 686 254 686 289 659.5 c 128,-1,6
 324 633 324 633 358.5 606.5 c 128,-1,7
 393 580 393 580 421 580 c 0,8,9
 458 580 458 580 522 612 c 1,10,-1
 522 591 l 1,11,12
 403 529 403 529 362 516 c 1,13,14
 333 522 333 522 280 562 c 128,-1,15
 227 602 227 602 192 602 c 0,16,17
 151 602 151 602 123 573 c 128,-1,18
 95 544 95 544 69 496 c 1,0,-1
-13 60 m 1,19,-1
 -18 73 l 1,20,21
 68 144 68 144 118 144 c 0,22,23
 157 144 157 144 169 120.5 c 128,-1,24
 181 97 181 97 181 53 c 0,25,26
 181 -103 181 -103 277 -103 c 0,27,28
 329 -103 329 -103 356.5 -61 c 128,-1,29
 384 -19 384 -19 384 37 c 0,30,31
 384 94 384 94 356.5 201 c 128,-1,32
 329 308 329 308 329 359 c 0,33,34
 329 370 329 370 331 388 c 1,35,36
 387 466 387 466 469 532 c 1,37,-1
 485 522 l 1,38,39
 450 487 450 487 433 457.5 c 128,-1,40
 416 428 416 428 416 383 c 0,41,42
 416 336 416 336 437 222.5 c 128,-1,43
 458 109 458 109 458 85 c 0,44,45
 458 0 458 0 390 -69.5 c 128,-1,46
 322 -139 322 -139 240 -139 c 0,47,48
 170 -139 170 -139 139 -107 c 0,49,50
 113 -81 113 -81 107 -22 c 0,51,52
 103 15 103 15 99 33.5 c 128,-1,53
 95 52 95 52 84 66 c 128,-1,54
 73 80 73 80 54 80 c 0,55,56
 18 80 18 80 -13 60 c 1,19,-1
EndSplineSet
EndChar

StartChar: K
Encoding: 75 75 45
Width: 668
VWidth: 1000
Flags: W
HStem: -27 80<523.5 634> 436 64<394.631 480> 634 47<356.27 510.813>
VStem: 160 81<369.044 492.272> 219 69<105.925 216.104> 586 33<501.685 561.217>
LayerCount: 2
Fore
SplineSet
634 348 m 1,0,-1
 466 272 l 1,1,-1
 466 271 l 1,2,3
 495 271 495 271 512 255 c 0,4,5
 523 244 523 244 532.5 209 c 128,-1,6
 542 174 542 174 548.5 140.5 c 128,-1,7
 555 107 555 107 571.5 80 c 128,-1,8
 588 53 588 53 613 53 c 0,9,10
 655 53 655 53 687 77 c 1,11,-1
 690 60 l 1,12,13
 603 -27 603 -27 554 -27 c 0,14,15
 493 -27 493 -27 479 85 c 0,16,17
 476 114 476 114 472 133.5 c 128,-1,18
 468 153 468 153 461 172.5 c 128,-1,19
 454 192 454 192 443.5 203.5 c 128,-1,20
 433 215 433 215 416.5 222 c 128,-1,21
 400 229 400 229 378 229 c 0,22,23
 335 229 335 229 288 207 c 1,24,25
 288 160 288 160 283 128 c 1,26,27
 203 6 203 6 107 -25 c 1,28,29
 53 -21 53 -21 16 32 c 1,30,-1
 73 98 l 1,31,-1
 83 98 l 1,32,33
 112 36 112 36 152 36 c 0,34,35
 174 36 174 36 188 45 c 128,-1,36
 202 54 202 54 208.5 71.5 c 128,-1,37
 215 89 215 89 217 105.5 c 128,-1,38
 219 122 219 122 219 144 c 0,39,40
 219 197 219 197 189.5 295.5 c 128,-1,41
 160 394 160 394 160 427 c 0,42,43
 160 445 160 445 166 457 c 1,44,45
 205 555 205 555 287 618 c 128,-1,46
 369 681 369 681 469 681 c 0,47,48
 500 681 500 681 532.5 674 c 128,-1,49
 565 667 565 667 592 647 c 128,-1,50
 619 627 619 627 619 599 c 0,51,52
 619 554 619 554 602 500 c 1,53,-1
 586 495 l 1,54,55
 586 563 586 563 534 598.5 c 128,-1,56
 482 634 482 634 410 634 c 0,57,58
 339 634 339 634 290 594.5 c 128,-1,59
 241 555 241 555 241 490 c 0,60,61
 241 429 241 429 261 367 c 1,62,63
 387 500 387 500 469 500 c 0,64,65
 491 500 491 500 508 485.5 c 128,-1,66
 525 471 525 471 532 456 c 128,-1,67
 539 441 539 441 551 409 c 0,68,69
 570 359 570 359 607 359 c 0,70,71
 618 359 618 359 628 364 c 1,72,-1
 634 348 l 1,0,-1
289 230 m 1,73,74
 355 260 355 260 408 270 c 1,75,76
 465 292 465 292 508 314 c 1,77,78
 486 327 486 327 469 383 c 0,79,80
 462 407 462 407 442.5 421.5 c 128,-1,81
 423 436 423 436 403 436 c 0,82,83
 332 436 332 436 267 327 c 1,84,85
 278 300 278 300 289 230 c 1,73,74
EndSplineSet
EndChar

StartChar: L
Encoding: 76 76 46
Width: 666
VWidth: 1000
Flags: W
HStem: -27 91<349.661 555.707> -15 21G<32 68.5> 69 74<99.7812 203.477> 434 18<606.328 635> 644 42<333.707 510>
VStem: 160 80<436.677 535.616> 253 72<224.57 293.068> 475 93<450 615.81> 629 16<173.211 190.928>
LayerCount: 2
Fore
SplineSet
629 197 m 1,0,-1
 645 186 l 1,1,2
 628 94 628 94 603.5 47 c 128,-1,3
 579 -0 579 -0 551 -13.5 c 128,-1,4
 523 -27 523 -27 474 -27 c 0,5,6
 377 -27 377 -27 192 53 c 0,7,8
 156 69 156 69 128 69 c 0,9,10
 93 69 93 69 44 -15 c 1,11,-1
 32 0 l 1,12,13
 33 3 33 3 39 18 c 128,-1,14
 45 33 45 33 47.5 38.5 c 128,-1,15
 50 44 50 44 56.5 58 c 128,-1,16
 63 72 63 72 67 78.5 c 128,-1,17
 71 85 71 85 78 96.5 c 128,-1,18
 85 108 85 108 91.5 114 c 128,-1,19
 98 120 98 120 106.5 127 c 128,-1,20
 115 134 115 134 124 137.5 c 128,-1,21
 133 141 133 141 143 143 c 1,22,-1
 174 143 l 1,23,24
 205 153 205 153 229 177 c 128,-1,25
 253 201 253 201 253 227 c 0,26,27
 253 257 253 257 206.5 339 c 128,-1,28
 160 421 160 421 160 468 c 0,29,30
 160 495 160 495 179 531 c 1,31,32
 221 605 221 605 292.5 645.5 c 128,-1,33
 364 686 364 686 448 686 c 0,34,35
 572 686 572 686 572 571 c 0,36,37
 572 557 572 557 570 523.5 c 128,-1,38
 568 490 568 490 568 483 c 0,39,40
 568 452 568 452 635 452 c 1,41,-1
 635 434 l 1,42,-1
 515 404 l 1,43,44
 503 404 503 404 489 418.5 c 128,-1,45
 475 433 475 433 475 450 c 0,46,47
 475 454 475 454 478.5 486 c 128,-1,48
 482 518 482 518 482 542 c 0,49,50
 482 593 482 593 452 618.5 c 128,-1,51
 422 644 422 644 376 644 c 0,52,53
 321 644 321 644 280.5 611 c 128,-1,54
 240 578 240 578 240 522 c 0,55,56
 240 497 240 497 250 467 c 0,57,58
 254 453 254 453 289.5 378 c 128,-1,59
 325 303 325 303 325 267 c 0,60,61
 325 245 325 245 275.5 194.5 c 128,-1,62
 226 144 226 144 209 132 c 1,63,64
 369 64 369 64 464 64 c 0,65,66
 544 64 544 64 581 101 c 0,67,68
 610 130 610 130 629 197 c 1,0,-1
EndSplineSet
EndChar

StartChar: M
Encoding: 77 77 47
Width: 1050
VWidth: 1000
Flags: W
HStem: -16 15G<27 54 381 402 499 538.4> 21 83<91.2246 164.188 447.913 498.066> 601 59<501.567 621> 628 64<172.734 268.137 799.004 893.5>
VStem: 28 68<497.684 570.802> 113 74<326.491 399.5> 353 81<248.202 520.703> 618 91<256.474 543.758> 827 79<111.576 396.662>
LayerCount: 2
Fore
SplineSet
421 569 m 0,0,1
 452 609 452 609 496 634.5 c 128,-1,2
 540 660 540 660 586 660 c 0,3,4
 656 660 656 660 686 577 c 1,5,6
 724 622 724 622 777 657 c 128,-1,7
 830 692 830 692 879 692 c 0,8,9
 908 692 908 692 924.5 671.5 c 128,-1,10
 941 651 941 651 946.5 626 c 128,-1,11
 952 601 952 601 966 580.5 c 128,-1,12
 980 560 980 560 1004 560 c 0,13,14
 1024 560 1024 560 1049 569 c 1,15,-1
 1049 554 l 1,16,17
 985 521 985 521 938 474 c 1,18,19
 906 411 906 411 906 277 c 0,20,21
 906 170 906 170 916 138 c 0,22,23
 922 118 922 118 937.5 99 c 128,-1,24
 953 80 953 80 970 80 c 0,25,26
 988 80 988 80 1028 101 c 1,27,-1
 1028 82 l 1,28,-1
 884 -27 l 1,29,-1
 827 99 l 1,30,-1
 826 271 l 2,31,32
 826 324 826 324 842 399 c 1,33,34
 874 448 874 448 922 490 c 1,35,36
 909 491 909 491 900.5 506 c 128,-1,37
 892 521 892 521 879 559 c 0,38,39
 865 599 865 599 854.5 613.5 c 128,-1,40
 844 628 844 628 820 628 c 0,41,42
 746 628 746 628 695 546 c 1,43,44
 709 474 709 474 709 436 c 0,45,46
 709 279 709 279 645 128 c 1,47,-1
 522 -22 l 1,48,49
 476 21 476 21 453 21 c 0,50,51
 433 21 433 21 421.5 13 c 128,-1,52
 410 5 410 5 394 -14 c 1,53,-1
 381 0 l 1,54,55
 454 104 454 104 485 104 c 0,56,57
 507 104 507 104 564 66 c 1,58,59
 584 86 584 86 596 118 c 128,-1,60
 608 150 608 150 612 200.5 c 128,-1,61
 616 251 616 251 617 278.5 c 128,-1,62
 618 306 618 306 618 367 c 0,63,64
 618 396 618 396 618 411.5 c 128,-1,65
 618 427 618 427 616 455.5 c 128,-1,66
 614 484 614 484 610 500.5 c 128,-1,67
 606 517 606 517 599 538.5 c 128,-1,68
 592 560 592 560 581.5 572 c 128,-1,69
 571 584 571 584 554.5 592.5 c 128,-1,70
 538 601 538 601 517 601 c 0,71,72
 461 601 461 601 424 529 c 1,73,74
 434 489 434 489 434 447 c 0,75,76
 434 242 434 242 362 122 c 1,77,-1
 192 -27 l 1,78,79
 141 26 141 26 107 26 c 0,80,81
 70 26 70 26 38 -16 c 1,82,-1
 27 0 l 1,83,84
 90 106 90 106 144 106 c 0,85,86
 177 106 177 106 241 48 c 1,87,88
 266 68 266 68 293 94 c 0,89,90
 318 119 318 119 336 198 c 0,91,92
 353 277 353 277 353 367 c 2,93,-1
 353 408 l 2,94,95
 353 495 353 495 308.5 562.5 c 128,-1,96
 264 630 264 630 195 630 c 0,97,98
 148 630 148 630 122 610 c 128,-1,99
 96 590 96 590 96 564 c 0,100,101
 96 537 96 537 110 511.5 c 128,-1,102
 124 486 124 486 141.5 469.5 c 128,-1,103
 159 453 159 453 173 431.5 c 128,-1,104
 187 410 187 410 187 389 c 0,105,106
 187 346 187 346 153.5 314.5 c 128,-1,107
 120 283 120 283 64 255 c 1,108,-1
 49 266 l 1,109,110
 75 280 75 280 94 302.5 c 128,-1,111
 113 325 113 325 113 347 c 0,112,113
 113 357 113 357 100 374 c 0,114,115
 93 384 93 384 76.5 405 c 128,-1,116
 60 426 60 426 51.5 438 c 128,-1,117
 43 450 43 450 35.5 469 c 128,-1,118
 28 488 28 488 28 507 c 0,119,120
 28 554 28 554 79 605 c 0,121,122
 96 622 96 622 118 639 c 128,-1,123
 140 656 140 656 181.5 673.5 c 128,-1,124
 223 691 223 691 262 691 c 0,125,126
 310 691 310 691 351.5 651.5 c 128,-1,127
 393 612 393 612 414 561 c 1,128,129
 417 563 417 563 421 569 c 0,0,1
EndSplineSet
EndChar

StartChar: N
Encoding: 78 78 48
Width: 832
VWidth: 1000
Flags: W
HStem: -22 62<198 265.724> 622 63<167.971 289.716 538.395 632.548>
VStem: 29 67<497.174 564.049> 114 74<320.491 397.5> 373 75<174.579 455.211> 622 76<118.801 416.75>
LayerCount: 2
Fore
SplineSet
422 533 m 1,0,1
 453 568 453 568 474 604 c 0,2,3
 496 640 496 640 538.5 663 c 128,-1,4
 581 686 581 686 623 686 c 0,5,6
 675 686 675 686 696.5 668.5 c 128,-1,7
 718 651 718 651 730 612 c 1,8,9
 740 576 740 576 749.5 565 c 128,-1,10
 759 554 759 554 778 554 c 0,11,12
 803 554 803 554 823 565 c 1,13,-1
 823 551 l 1,14,15
 782 522 782 522 735 484 c 0,16,17
 698 453 698 453 698 277 c 0,18,19
 698 248 698 248 700.5 218 c 128,-1,20
 703 188 703 188 710 153.5 c 128,-1,21
 717 119 717 119 731.5 97.5 c 128,-1,22
 746 76 746 76 767 76 c 128,-1,23
 788 76 788 76 830 98 c 1,24,-1
 830 76 l 1,25,-1
 686 -29 l 1,26,-1
 622 104 l 1,27,-1
 623 271 l 2,28,29
 623 367 623 367 629 388 c 0,30,31
 632 397 632 397 637 407 c 128,-1,32
 642 417 642 417 652 428.5 c 128,-1,33
 662 440 662 440 668 446.5 c 128,-1,34
 674 453 674 453 687.5 467 c 128,-1,35
 701 481 701 481 704 484 c 1,36,37
 686 488 686 488 672 507 c 0,38,39
 667 514 667 514 657 547 c 128,-1,40
 647 580 647 580 630 604 c 128,-1,41
 613 628 613 628 586 628 c 0,42,43
 504 628 504 628 433 501 c 1,44,45
 448 411 448 411 448 351 c 0,46,47
 448 206 448 206 405 122 c 1,48,49
 391 98 391 98 389 96 c 0,50,51
 257 -22 257 -22 210 -22 c 0,52,53
 186 -22 186 -22 162.5 -5 c 128,-1,54
 139 12 139 12 124 36 c 1,55,-1
 180 101 l 1,56,-1
 192 101 l 1,57,58
 201 78 201 78 219 59 c 128,-1,59
 237 40 237 40 263 40 c 0,60,61
 292 40 292 40 331 79 c 0,62,63
 373 121 373 121 373 266 c 0,64,65
 373 354 373 354 355.5 435.5 c 128,-1,66
 338 517 338 517 314 550 c 0,67,68
 292 581 292 581 260.5 601.5 c 128,-1,69
 229 622 229 622 196 622 c 0,70,71
 96 622 96 622 96 551 c 0,72,73
 96 520 96 520 142 466 c 128,-1,74
 188 412 188 412 188 383 c 0,75,76
 188 340 188 340 154.5 308.5 c 128,-1,77
 121 277 121 277 65 249 c 1,78,-1
 50 260 l 1,79,80
 76 274 76 274 95 296.5 c 128,-1,81
 114 319 114 319 114 341 c 0,82,83
 114 351 114 351 101 368 c 0,84,85
 94 378 94 378 77.5 399 c 128,-1,86
 61 420 61 420 52.5 432 c 128,-1,87
 44 444 44 444 36.5 463 c 128,-1,88
 29 482 29 482 29 501 c 0,89,90
 29 548 29 548 80 599 c 0,91,92
 166 685 166 685 263 685 c 0,93,94
 316 685 316 685 358.5 641 c 128,-1,95
 401 597 401 597 422 533 c 1,0,1
EndSplineSet
EndChar

StartChar: O
Encoding: 79 79 49
Width: 827
VWidth: 1000
Flags: W
HStem: -27 63<329.616 485.215> -16 21G<11 45> 37 75<160 205.563>
VStem: 80 85<405.5 485.438> 187 74<195.839 270.411> 267 75<627.5 709> 655 91<225.408 479.239>
LayerCount: 2
Fore
SplineSet
432 596 m 1,0,-1
 346 593 l 1,1,2
 317 593 317 593 292 604.5 c 128,-1,3
 267 616 267 616 267 639 c 0,4,5
 267 657 267 657 278.5 671.5 c 128,-1,6
 290 686 290 686 309 702.5 c 128,-1,7
 328 719 328 719 336 729 c 1,8,-1
 352 729 l 1,9,10
 342 715 342 715 342 703 c 0,11,12
 342 675 342 675 473.362 664.594 c 0,13,14
 495 663 495 663 506 662 c 0,15,16
 576 656 576 656 624.5 633 c 128,-1,17
 673 610 673 610 698.5 573 c 128,-1,18
 724 536 724 536 735 494 c 128,-1,19
 746 452 746 452 746 399 c 0,20,21
 746 189 746 189 655 112 c 1,22,23
 504 -27 504 -27 389 -27 c 0,24,25
 305 -27 305 -27 229 5 c 0,26,27
 224 7 224 7 205 15 c 128,-1,28
 186 23 186 23 176.5 26.5 c 128,-1,29
 167 30 167 30 151.5 33.5 c 128,-1,30
 136 37 136 37 123 37 c 0,31,32
 63 37 63 37 27 -16 c 1,33,-1
 11 0 l 1,34,35
 58 62 58 62 102 106 c 1,36,37
 138 118 138 118 162.5 145 c 128,-1,38
 187 172 187 172 187 207 c 0,39,40
 187 213 187 213 185.5 220 c 128,-1,41
 184 227 184 227 183 232 c 128,-1,42
 182 237 182 237 178 245 c 128,-1,43
 174 253 174 253 172.5 256.5 c 128,-1,44
 171 260 171 260 165.5 269 c 128,-1,45
 160 278 160 278 159 280 c 128,-1,46
 158 282 158 282 151.5 292 c 128,-1,47
 145 302 145 302 144 303 c 0,48,49
 134 318 134 318 119 339 c 128,-1,50
 104 360 104 360 97.5 369 c 128,-1,51
 91 378 91 378 85.5 389.5 c 128,-1,52
 80 401 80 401 80 410 c 0,53,54
 80 462 80 462 119 509.5 c 128,-1,55
 158 557 158 557 214 591 c 1,56,-1
 235 580 l 1,57,58
 165 529 165 529 165 484 c 0,59,60
 165 452 165 452 213 373.5 c 128,-1,61
 261 295 261 295 261 261 c 0,62,63
 261 233 261 233 243.5 203.5 c 128,-1,64
 226 174 226 174 208 155.5 c 128,-1,65
 190 137 190 137 160 112 c 1,66,67
 177 112 177 112 199 104 c 0,68,69
 221 97 221 97 262 82 c 128,-1,70
 303 67 303 67 328 59 c 128,-1,71
 353 51 353 51 389.5 43.5 c 128,-1,72
 426 36 426 36 460 36 c 0,73,74
 514 36 514 36 553.5 61 c 128,-1,75
 593 86 593 86 614 129.5 c 128,-1,76
 635 173 635 173 645 222.5 c 128,-1,77
 655 272 655 272 655 330 c 0,78,79
 655 409 655 409 638.5 463 c 128,-1,80
 622 517 622 517 590.5 545 c 128,-1,81
 559 573 559 573 521 584.5 c 128,-1,82
 483 596 483 596 432 596 c 1,0,-1
EndSplineSet
EndChar

StartChar: P
Encoding: 80 80 50
Width: 828
VWidth: 1000
Flags: W
HStem: -11 73<522.386 634.752> 80 74<209.994 329.677> 522 16<789.747 801.24> 622 63<144.683 244.47> 633 59<546.857 658>
VStem: 6 65<496.447 564.049> 91 74<320.491 398.5> 331 79<-146.34 37 146 513.447> 602 74<336.969 400.097> 634 80<539.955 613.401> 700 51<117.675 232.5>
LayerCount: 2
Fore
SplineSet
410 509 m 1,0,-1
 410 122 l 1,1,-1
 411 122 l 1,2,3
 446 111 446 111 483 98 c 128,-1,4
 520 85 520 85 535.5 80 c 128,-1,5
 551 75 551 75 568.5 70 c 128,-1,6
 586 65 586 65 596.5 63.5 c 128,-1,7
 607 62 607 62 619 62 c 0,8,9
 653 62 653 62 676.5 82.5 c 128,-1,10
 700 103 700 103 700 138 c 0,11,12
 700 171 700 171 651 241.5 c 128,-1,13
 602 312 602 312 602 346 c 0,14,15
 602 367 602 367 618 391 c 128,-1,16
 634 415 634 415 649 428.5 c 128,-1,17
 664 442 664 442 690 464 c 1,18,19
 637 476 637 476 634 554 c 0,20,21
 632 595 632 595 618.5 614 c 128,-1,22
 605 633 605 633 570 633 c 128,-1,23
 535 633 535 633 502 611.5 c 128,-1,24
 469 590 469 590 451 567.5 c 128,-1,25
 433 545 433 545 410 509 c 1,0,-1
398 540 m 1,26,27
 438 600 438 600 505.5 646 c 128,-1,28
 573 692 573 692 639 692 c 0,29,30
 677 692 677 692 695 666.5 c 128,-1,31
 713 641 713 641 714 611 c 128,-1,32
 715 581 715 581 725.5 555.5 c 128,-1,33
 736 530 736 530 762 530 c 0,34,35
 775 530 775 530 799 538 c 1,36,-1
 804 522 l 1,37,38
 758 498 758 498 717 462.5 c 128,-1,39
 676 427 676 427 676 399 c 0,40,41
 676 370 676 370 713.5 311 c 128,-1,42
 751 252 751 252 751 213 c 0,43,44
 751 132 751 132 691 60.5 c 128,-1,45
 631 -11 631 -11 559 -11 c 0,46,47
 548 -11 548 -11 528 -5 c 1,48,-1
 410 37 l 1,49,50
 410 -64 410 -64 421 -149 c 1,51,52
 412 -156 412 -156 325 -219 c 1,53,-1
 304 -208 l 1,54,55
 331 -142 331 -142 331 63 c 1,56,57
 275 80 275 80 251 80 c 0,58,59
 242 80 242 80 233.5 78.5 c 128,-1,60
 225 77 225 77 216.5 72.5 c 128,-1,61
 208 68 208 68 201.5 64.5 c 128,-1,62
 195 61 195 61 187 53.5 c 128,-1,63
 179 46 179 46 174 41.5 c 128,-1,64
 169 37 169 37 161.5 27 c 128,-1,65
 154 17 154 17 150.5 13 c 128,-1,66
 147 9 147 9 138.5 -2 c 128,-1,67
 130 -13 130 -13 128 -16 c 1,68,-1
 118 5 l 1,69,70
 134 37 134 37 147 58 c 128,-1,71
 160 79 160 79 180.5 104 c 128,-1,72
 201 129 201 129 226.5 141.5 c 128,-1,73
 252 154 252 154 283 154 c 0,74,75
 302 154 302 154 331 146 c 1,76,-1
 331 396 l 2,77,78
 331 486 331 486 287.5 554 c 128,-1,79
 244 622 244 622 173 622 c 0,80,81
 71 622 71 622 71 551 c 0,82,83
 71 518 71 518 118 466 c 128,-1,84
 165 414 165 414 165 383 c 0,85,86
 165 340 165 340 131.5 308.5 c 128,-1,87
 98 277 98 277 42 249 c 1,88,-1
 27 260 l 1,89,90
 53 274 53 274 72 296.5 c 128,-1,91
 91 319 91 319 91 341 c 0,92,93
 91 351 91 351 78 368 c 0,94,95
 71 378 71 378 54.5 399 c 128,-1,96
 38 420 38 420 29.5 432 c 128,-1,97
 21 444 21 444 13.5 463 c 128,-1,98
 6 482 6 482 6 501 c 0,99,100
 6 548 6 548 57 599 c 0,101,102
 143 685 143 685 240 685 c 0,103,104
 291 685 291 685 335 640.5 c 128,-1,105
 379 596 379 596 398 540 c 1,26,27
EndSplineSet
EndChar

StartChar: Q
Encoding: 81 81 51
Width: 827
VWidth: 1000
Flags: W
HStem: -27 64<328.013 481.783> -16 21G<11 45> 37 76<159 205.89>
VStem: 80 85<405.5 485.438> 187 74<193.115 270.411> 267 75<627.5 709> 655 91<228.576 479.239>
LayerCount: 2
Fore
SplineSet
432 596 m 1,0,-1
 346 593 l 1,1,2
 317 593 317 593 292 604.5 c 128,-1,3
 267 616 267 616 267 639 c 0,4,5
 267 660 267 660 278 671 c 2,6,-1
 336 729 l 1,7,-1
 352 729 l 1,8,9
 342 715 342 715 342 703 c 0,10,11
 342 684 342 684 374.5 677 c 128,-1,12
 407 670 407 670 476.658 664.43 c 0,13,14
 496 663 496 663 506 662 c 0,15,16
 576 656 576 656 624.5 633 c 128,-1,17
 673 610 673 610 698.5 573 c 128,-1,18
 724 536 724 536 735 494 c 128,-1,19
 746 452 746 452 746 399 c 0,20,21
 746 194 746 194 655 112 c 0,22,23
 621 82 621 82 603 68 c 1,24,25
 623 46 623 46 635.5 33.5 c 128,-1,26
 648 21 648 21 669.5 7.5 c 128,-1,27
 691 -6 691 -6 709 -6 c 0,28,29
 743 -6 743 -6 783 21 c 1,30,-1
 783 -6 l 1,31,-1
 666 -69 l 1,32,33
 564 -38 564 -38 513 10 c 1,34,-1
 511 9 l 1,35,36
 443 -27 443 -27 389 -27 c 0,37,38
 307 -27 307 -27 229 5 c 0,39,40
 224 7 224 7 205 15 c 128,-1,41
 186 23 186 23 176.5 26.5 c 128,-1,42
 167 30 167 30 151.5 33.5 c 128,-1,43
 136 37 136 37 123 37 c 0,44,45
 63 37 63 37 27 -16 c 1,46,-1
 11 0 l 1,47,48
 58 62 58 62 102 106 c 1,49,50
 138 118 138 118 162.5 145 c 128,-1,51
 187 172 187 172 187 207 c 0,52,53
 187 213 187 213 185.5 220 c 128,-1,54
 184 227 184 227 183 232 c 128,-1,55
 182 237 182 237 178 245 c 128,-1,56
 174 253 174 253 172.5 256.5 c 128,-1,57
 171 260 171 260 165.5 269 c 128,-1,58
 160 278 160 278 159 280 c 128,-1,59
 158 282 158 282 151.5 292 c 128,-1,60
 145 302 145 302 144 303 c 0,61,62
 134 318 134 318 119 339 c 128,-1,63
 104 360 104 360 97.5 369 c 128,-1,64
 91 378 91 378 85.5 389.5 c 128,-1,65
 80 401 80 401 80 410 c 0,66,67
 80 462 80 462 119 509.5 c 128,-1,68
 158 557 158 557 214 591 c 1,69,-1
 235 580 l 1,70,71
 165 529 165 529 165 484 c 0,72,73
 165 452 165 452 213 373.5 c 128,-1,74
 261 295 261 295 261 261 c 0,75,76
 261 190 261 190 159 113 c 1,77,78
 174 113 174 113 199 104 c 0,79,80
 218 98 218 98 276 77 c 128,-1,81
 334 56 334 56 374 46.5 c 128,-1,82
 414 37 414 37 456 37 c 0,83,84
 512 37 512 37 557 66 c 128,-1,85
 602 95 602 95 625 146 c 0,86,87
 655 212 655 212 655 330 c 0,88,89
 655 409 655 409 638.5 463 c 128,-1,90
 622 517 622 517 590.5 545 c 128,-1,91
 559 573 559 573 521 584.5 c 128,-1,92
 483 596 483 596 432 596 c 1,0,-1
EndSplineSet
EndChar

StartChar: R
Encoding: 82 82 52
Width: 828
VWidth: 1000
Flags: W
HStem: -16 21G<27 54> 26 80<91.7628 156.988> 504 13<791 802.86> 623 63<167.693 288.715 541.389 663.5>
VStem: 29 70<493.154 565.623> 114 74<321.491 399> 354 81<245.932 514.296> 632 66<136.423 299.641>
LayerCount: 2
Fore
SplineSet
432 348 m 1,0,1
 492 379 492 379 547 388 c 1,2,-1
 676 463 l 1,3,4
 653 465 653 465 639 479 c 0,5,6
 632 486 632 486 628 511.5 c 128,-1,7
 624 537 624 537 621 562 c 128,-1,8
 618 587 618 587 604 607.5 c 128,-1,9
 590 628 590 628 565 628 c 0,10,11
 523 628 523 628 493 598 c 128,-1,12
 463 568 463 568 430 512 c 1,13,14
 435 487 435 487 435 451 c 0,15,16
 435 382 435 382 432 348 c 1,0,1
418 548 m 1,17,-1
 422 553 l 2,18,19
 470 614 470 614 519.5 650 c 128,-1,20
 569 686 569 686 629 686 c 0,21,22
 698 686 698 686 709 591 c 1,23,24
 708 581 708 581 709 567.5 c 128,-1,25
 710 554 710 554 711.5 542 c 128,-1,26
 713 530 713 530 725.5 521.5 c 128,-1,27
 738 513 738 513 761 513 c 0,28,29
 775 513 775 513 799 517 c 1,30,-1
 806 504 l 1,31,32
 685 459 685 459 596 388 c 1,33,34
 654 388 654 388 698 351 c 1,35,36
 706 178 706 178 714 154 c 0,37,38
 741 69 741 69 767 69 c 0,39,40
 774 69 774 69 826 90 c 1,41,-1
 826 74 l 1,42,-1
 693 -27 l 1,43,-1
 629 90 l 1,44,45
 629 94 629 94 630.5 128 c 128,-1,46
 632 162 632 162 632 179 c 0,47,48
 632 279 632 279 603 308 c 0,49,50
 568 343 568 343 520 343 c 0,51,52
 492 343 492 343 428 324 c 1,53,54
 411 197 411 197 360 119 c 1,55,56
 329 94 329 94 272 43.5 c 128,-1,57
 215 -7 215 -7 192 -27 c 1,58,59
 139 26 139 26 111 26 c 0,60,61
 70 26 70 26 38 -16 c 1,62,-1
 27 0 l 1,63,64
 41 22 41 22 49.5 34 c 128,-1,65
 58 46 58 46 74.5 66 c 128,-1,66
 91 86 91 86 108.5 96 c 128,-1,67
 126 106 126 106 144 106 c 0,68,69
 184 106 184 106 238 48 c 1,70,71
 311 98 311 98 332.5 173 c 128,-1,72
 354 248 354 248 354 367 c 0,73,74
 354 492 354 492 314 551 c 0,75,76
 293 582 293 582 261.5 602.5 c 128,-1,77
 230 623 230 623 196 623 c 0,78,79
 152 623 152 623 125.5 601.5 c 128,-1,80
 99 580 99 580 99 536 c 0,81,82
 99 517 99 517 143.5 465.5 c 128,-1,83
 188 414 188 414 188 384 c 0,84,85
 188 341 188 341 154.5 309.5 c 128,-1,86
 121 278 121 278 65 250 c 1,87,-1
 50 261 l 1,88,89
 76 275 76 275 95 297.5 c 128,-1,90
 114 320 114 320 114 342 c 0,91,92
 114 352 114 352 101 369 c 0,93,94
 94 379 94 379 77.5 400 c 128,-1,95
 61 421 61 421 52.5 433 c 128,-1,96
 44 445 44 445 36.5 464 c 128,-1,97
 29 483 29 483 29 502 c 0,98,99
 29 549 29 549 80 600 c 0,100,101
 166 686 166 686 263 686 c 0,102,103
 313 686 313 686 355.5 644 c 128,-1,104
 398 602 398 602 418 548 c 1,17,-1
EndSplineSet
EndChar

StartChar: S
Encoding: 83 83 53
Width: 829
VWidth: 1000
Flags: W
HStem: -27 53<339.88 519.334> 309 58<318.619 474.506> 669 20G<338.5 430.5>
VStem: 56 83<244.11 434.46> 229 75<380.994 450.753> 677 74<165.237 286.504> 737 19<643.07 659.15>
LayerCount: 2
Fore
SplineSet
339 508 m 1,0,-1
 352 495 l 1,1,2
 304 480 304 480 304 426 c 0,3,4
 304 398 304 398 321.5 382.5 c 128,-1,5
 339 367 339 367 368 367 c 0,6,7
 396 367 396 367 486 388.5 c 128,-1,8
 576 410 576 410 613 410 c 0,9,10
 671 410 671 410 711 373.5 c 128,-1,11
 751 337 751 337 751 277 c 0,12,13
 751 202 751 202 717.5 142 c 128,-1,14
 684 82 684 82 628.5 46 c 128,-1,15
 573 10 573 10 507.5 -8.5 c 128,-1,16
 442 -27 442 -27 373 -27 c 0,17,18
 238 -27 238 -27 163 48 c 0,19,20
 112 99 112 99 84 167.5 c 128,-1,21
 56 236 56 236 56 309 c 0,22,23
 56 456 56 456 164 564 c 1,24,25
 252 654 252 654 425 689 c 1,26,27
 436 683 436 683 460 670 c 128,-1,28
 484 657 484 657 494.5 651.5 c 128,-1,29
 505 646 505 646 525.5 635.5 c 128,-1,30
 546 625 546 625 556.5 620 c 128,-1,31
 567 615 567 615 583 608.5 c 128,-1,32
 599 602 599 602 610 599 c 128,-1,33
 621 596 621 596 633 593.5 c 128,-1,34
 645 591 645 591 655 591 c 0,35,36
 713 591 713 591 737 666 c 1,37,-1
 756 655 l 1,38,39
 732 558 732 558 607 511 c 1,40,41
 571 514 571 514 477.5 571 c 128,-1,42
 384 628 384 628 336 628 c 0,43,44
 252 628 252 628 195.5 549.5 c 128,-1,45
 139 471 139 471 139 378 c 0,46,47
 139 286 139 286 176 206.5 c 128,-1,48
 213 127 213 127 286.5 76.5 c 128,-1,49
 360 26 360 26 455 26 c 0,50,51
 579 26 579 26 630 77 c 0,52,53
 677 124 677 124 677 207 c 0,54,55
 677 263 677 263 644 302 c 128,-1,56
 611 341 611 341 554 341 c 0,57,58
 520 341 520 341 442 325 c 128,-1,59
 364 309 364 309 325 309 c 0,60,61
 285 309 285 309 257 330 c 128,-1,62
 229 351 229 351 229 388 c 0,63,64
 229 431 229 431 262 463.5 c 128,-1,65
 295 496 295 496 339 508 c 1,0,-1
EndSplineSet
EndChar

StartChar: T
Encoding: 84 84 54
Width: 669
VWidth: 1000
Flags: W
HStem: -11 21G<102 150> 48 70<211.788 312.258> 575 74<410.381 608.52> 623 63<170.277 368.995>
VStem: 24 50<461.093 544.17> 384 69<197.384 257.137>
LayerCount: 2
Fore
SplineSet
607 133 m 1,0,-1
 618 117 l 1,1,2
 524 10 524 10 448 -27 c 1,3,4
 412 -22 412 -22 343 13 c 128,-1,5
 274 48 274 48 235 48 c 0,6,7
 188 48 188 48 112 -11 c 1,8,-1
 102 5 l 1,9,10
 155 61 155 61 224 117 c 1,11,12
 234 118 234 118 254 118 c 0,13,14
 287 118 287 118 309 112 c 1,15,16
 339 129 339 129 361.5 155 c 128,-1,17
 384 181 384 181 384 207 c 0,18,19
 384 236 384 236 325.5 304 c 128,-1,20
 267 372 267 372 261 404 c 1,21,22
 283 498 283 498 384 596 c 1,23,24
 306 623 306 623 224 623 c 0,25,26
 164 623 164 623 119 598 c 128,-1,27
 74 573 74 573 74 516 c 0,28,29
 74 488 74 488 92.5 465 c 128,-1,30
 111 442 111 442 139 431 c 1,31,-1
 75 367 l 1,32,33
 24 407 24 407 24 465 c 0,34,35
 24 504 24 504 48 547 c 128,-1,36
 72 590 72 590 106 621 c 0,37,38
 175 686 175 686 283 686 c 0,39,40
 333 686 333 686 429.5 667.5 c 128,-1,41
 526 649 526 649 570 649 c 0,42,43
 629 649 629 649 676 703 c 1,44,-1
 676 681 l 1,45,-1
 607 591 l 1,46,47
 581 575 581 575 538 575 c 0,48,49
 468 575 468 575 410 589 c 1,50,51
 382 567 382 567 359 533 c 128,-1,52
 336 499 336 499 336 463 c 0,53,54
 336 444 336 444 354.5 416.5 c 128,-1,55
 373 389 373 389 394.5 366 c 128,-1,56
 416 343 416 343 434.5 312 c 128,-1,57
 453 281 453 281 453 255 c 0,58,59
 453 230 453 230 431.5 198.5 c 128,-1,60
 410 167 410 167 390 148.5 c 128,-1,61
 370 130 370 130 337 103 c 1,62,63
 434 58 434 58 474 58 c 0,64,65
 532 58 532 58 607 133 c 1,0,-1
EndSplineSet
EndChar

StartChar: U
Encoding: 85 85 55
Width: 646
VWidth: 1000
Flags: W
HStem: -27 75<236.39 341.516> -6 21G<-26 -0.5>
VStem: 59 85<475.225 566.422> 160 69<215.16 319.34> 448 85<341.501 596> 458 75<165.513 495.255>
LayerCount: 2
Fore
SplineSet
455 120 m 1,0,-1
 341 -6 l 1,1,2
 314 -27 314 -27 283 -27 c 0,3,4
 237 -27 237 -27 156.5 5 c 128,-1,5
 76 37 76 37 38 37 c 0,6,7
 15 37 15 37 -16 -6 c 1,8,-1
 -26 11 l 1,9,-1
 54 101 l 1,10,11
 79 103 79 103 123 149 c 0,12,13
 160 187 160 187 160 250 c 0,14,15
 160 284 160 284 109.5 374 c 128,-1,16
 59 464 59 464 59 506 c 0,17,18
 59 546 59 546 110.5 605 c 128,-1,19
 162 664 162 664 219 697 c 1,20,-1
 229 681 l 1,21,22
 144 619 144 619 144 554 c 0,23,24
 144 518 144 518 186.5 430 c 128,-1,25
 229 342 229 342 229 293 c 0,26,27
 229 249 229 249 214 218 c 1,28,-1
 113 106 l 1,29,30
 148 106 148 106 219.5 77 c 128,-1,31
 291 48 291 48 315 48 c 0,32,33
 351 48 351 48 396 89 c 128,-1,34
 441 130 441 130 453 165 c 0,35,36
 458 181 458 181 458 250 c 0,37,38
 458 452 458 452 448 596 c 1,39,-1
 575 686 l 1,40,-1
 591 676 l 1,41,42
 564 649 564 649 550 608.5 c 128,-1,43
 536 568 536 568 534.5 541 c 128,-1,44
 533 514 533 514 533 463 c 2,45,-1
 533 261 l 2,46,47
 533 248 533 248 535.5 224.5 c 128,-1,48
 538 201 538 201 544 165 c 128,-1,49
 550 129 550 129 566.5 104 c 128,-1,50
 583 79 583 79 606 79 c 0,51,52
 635 79 635 79 666 101 c 1,53,-1
 666 80 l 1,54,-1
 522 -27 l 1,55,-1
 455 120 l 1,0,-1
EndSplineSet
EndChar

StartChar: V
Encoding: 86 86 56
Width: 831
VWidth: 1000
Flags: W
HStem: -27 59<482.095 582.732> 90 64<176.374 281.82> 623 63<167.971 268.349 555.088 644>
VStem: 29 67<497.032 565.049> 114 74<321.491 399> 354 79<312.117 513.602> 650 75<257.617 468.379> 661 90<124.812 383.556>
LayerCount: 2
Fore
SplineSet
378 224 m 1,0,-1
 285 151 l 1,1,2
 312 149 312 149 337 136.5 c 128,-1,3
 362 124 362 124 416 90 c 0,4,5
 509 32 509 32 559 32 c 0,6,7
 587 32 587 32 607 43 c 128,-1,8
 627 54 627 54 637 69.5 c 128,-1,9
 647 85 647 85 653 111 c 128,-1,10
 659 137 659 137 660 157 c 128,-1,11
 661 177 661 177 661 207 c 0,12,13
 661 233 661 233 655.5 296.5 c 128,-1,14
 650 360 650 360 650 394 c 128,-1,15
 650 428 650 428 661 463 c 1,16,-1
 735 548 l 1,17,18
 704 548 704 548 651 582.5 c 128,-1,19
 598 617 598 617 565 617 c 0,20,21
 552 617 552 617 535.5 608 c 128,-1,22
 519 599 519 599 509 590 c 2,23,-1
 499 581 l 1,24,25
 457 541 457 541 433 486 c 1,26,27
 433 331 433 331 378 224 c 1,0,-1
480 601 m 0,28,29
 510 635 510 635 550 660.5 c 128,-1,30
 590 686 590 686 623 686 c 0,31,32
 665 686 665 686 719 649 c 1,33,34
 763 617 763 617 800 617 c 0,35,36
 814 617 814 617 826 623 c 1,37,-1
 826 607 l 1,38,39
 781 576 781 576 753 531.5 c 128,-1,40
 725 487 725 487 725 436 c 0,41,42
 725 397 725 397 738 319 c 128,-1,43
 751 241 751 241 751 218 c 0,44,45
 751 177 751 177 733.5 135 c 128,-1,46
 716 93 716 93 687 71 c 2,47,-1
 570 -14 l 2,48,49
 550 -29 550 -29 517 -27 c 1,50,51
 456 -27 456 -27 368 26 c 0,52,53
 261 90 261 90 214 90 c 0,54,55
 145 90 145 90 91 26 c 1,56,-1
 80 42 l 1,57,58
 143 113 143 113 208 154 c 1,59,60
 354 154 354 154 354 403 c 1,61,62
 352 491 352 491 309.5 557 c 128,-1,63
 267 623 267 623 196 623 c 0,64,65
 96 623 96 623 96 552 c 0,66,67
 96 519 96 519 142 466.5 c 128,-1,68
 188 414 188 414 188 384 c 0,69,70
 188 341 188 341 154.5 309.5 c 128,-1,71
 121 278 121 278 65 250 c 1,72,-1
 50 261 l 1,73,74
 76 275 76 275 95 297.5 c 128,-1,75
 114 320 114 320 114 342 c 0,76,77
 114 352 114 352 101 369 c 0,78,79
 94 379 94 379 77.5 400 c 128,-1,80
 61 421 61 421 52.5 433 c 128,-1,81
 44 445 44 445 36.5 464 c 128,-1,82
 29 483 29 483 29 502 c 0,83,84
 29 549 29 549 80 600 c 0,85,86
 166 686 166 686 263 686 c 0,87,88
 318 686 318 686 361 639 c 128,-1,89
 404 592 404 592 425 526 c 1,90,91
 447 563 447 563 480 601 c 0,28,29
EndSplineSet
EndChar

StartChar: W
Encoding: 87 87 57
Width: 1046
VWidth: 1000
Flags: W
HStem: -25 57<711.664 812.237> -11 21G<32 78> 48 74<128.073 209.102> 623 63<159.971 260.074 784.207 850.432>
VStem: 21 67<495.445 564.885> 106 74<321.491 397> 346 79<315.369 512.838> 607 72<226.309 498.913> 874 80<92.4106 183.419 187.102 484.652> 886 83<111.511 411.382>
LayerCount: 2
Fore
SplineSet
895 485 m 1,0,-1
 954 548 l 1,1,2
 935 548 935 548 882 582.5 c 128,-1,3
 829 617 829 617 794 617 c 0,4,5
 735 617 735 617 675 530 c 1,6,7
 679 464 679 464 679 427 c 0,8,9
 679 298 679 298 650 200 c 1,10,11
 597 128 597 128 571 101 c 1,12,13
 601 101 601 101 681.5 66.5 c 128,-1,14
 762 32 762 32 794 32 c 0,15,16
 843 32 843 32 868 74 c 0,17,18
 886 103 886 103 886 186 c 0,19,20
 886 221 886 221 880 289 c 128,-1,21
 874 357 874 357 874 391 c 0,22,23
 874 458 874 458 895 485 c 1,0,-1
352 191 m 1,24,25
 302 150 302 150 234 110 c 1,26,27
 321 42 321 42 394 42 c 0,28,29
 479 42 479 42 549 112 c 0,30,31
 607 169 607 169 607 362 c 0,32,33
 607 440 607 440 580.5 510 c 128,-1,34
 554 580 554 580 496 605 c 1,35,36
 439 554 439 554 418 525 c 0,37,38
 418 524 418 524 421.5 503 c 128,-1,39
 425 482 425 482 425 476 c 0,40,41
 425 448 425 448 420.5 406.5 c 128,-1,42
 416 365 416 365 398.5 299.5 c 128,-1,43
 381 234 381 234 352 191 c 1,24,25
409 551 m 1,44,-1
 421 564 l 2,45,46
 473 621 473 621 559 686 c 1,47,48
 622 650 622 650 666 559 c 1,49,50
 701 596 701 596 723.5 618 c 128,-1,51
 746 640 746 640 782.5 663 c 128,-1,52
 819 686 819 686 847 686 c 0,53,54
 881 686 881 686 935 653 c 128,-1,55
 989 620 989 620 1018 620 c 0,56,57
 1036 620 1036 620 1055 628 c 1,58,-1
 1049 607 l 1,59,60
 1000 571 1000 571 977 533.5 c 128,-1,61
 954 496 954 496 954 434 c 0,62,63
 954 397 954 397 961.5 323.5 c 128,-1,64
 969 250 969 250 969 213 c 0,65,66
 969 169 969 169 960 139 c 0,67,68
 945 92 945 92 868.5 33.5 c 128,-1,69
 792 -25 792 -25 734 -25 c 0,70,71
 693 -25 693 -25 614 6 c 128,-1,72
 535 37 535 37 496 37 c 1,73,74
 422 3 422 3 378 -27 c 1,75,76
 376 -27 376 -27 370 -27.5 c 128,-1,77
 364 -28 364 -28 362 -28 c 0,78,79
 298 -28 298 -28 235 11 c 0,80,81
 176 48 176 48 149 48 c 0,82,83
 110 48 110 48 46 -11 c 1,84,-1
 32 5 l 1,85,86
 87.5 69.5 87.5 69.5 155 122 c 1,87,-1
 158 122 l 2,88,89
 211 122 211 122 249 146 c 128,-1,90
 287 170 287 170 307.5 212 c 128,-1,91
 328 254 328 254 337 300.5 c 128,-1,92
 346 347 346 347 346 402 c 1,93,94
 344 490 344 490 301.5 556.5 c 128,-1,95
 259 623 259 623 188 623 c 0,96,97
 88 623 88 623 88 554 c 0,98,99
 88 524 88 524 111 494.5 c 128,-1,100
 134 465 134 465 157 437.5 c 128,-1,101
 180 410 180 410 180 384 c 0,102,103
 180 341 180 341 146.5 309.5 c 128,-1,104
 113 278 113 278 57 250 c 1,105,-1
 42 261 l 1,106,107
 68 275 68 275 87 297.5 c 128,-1,108
 106 320 106 320 106 342 c 0,109,110
 106 352 106 352 93 369 c 0,111,112
 86 379 86 379 69.5 400 c 128,-1,113
 53 421 53 421 44.5 433 c 128,-1,114
 36 445 36 445 28.5 464 c 128,-1,115
 21 483 21 483 21 502 c 0,116,117
 21 549 21 549 72 600 c 0,118,119
 158 686 158 686 255 686 c 0,120,121
 304 686 304 686 346.5 645 c 128,-1,122
 389 604 389 604 409 551 c 1,44,-1
EndSplineSet
EndChar

StartChar: X
Encoding: 88 88 58
Width: 719
VWidth: 1000
Flags: W
HStem: -22 70<108.502 174.821 503.128 577.686> 325 42<197 332.358 407.895 550.315> 333 34<197 336 405 542.551> 594 92<226 278.5> 669 20G<522.5 590>
VStem: 336 69<183.154 333 367 500.751 516 524.705>
LayerCount: 2
Fore
SplineSet
78 527 m 1,0,-1
 226 686 l 1,1,2
 302 683 302 683 346 639 c 0,3,4
 376 609 376 609 399 522 c 0,5,6
 399 521 399 521 399.5 519 c 128,-1,7
 400 517 400 517 400 516 c 1,8,9
 457 635 457 635 588 689 c 1,10,11
 592 681 592 681 602.5 657.5 c 128,-1,12
 613 634 613 634 619.5 622 c 128,-1,13
 626 610 626 610 638.5 599 c 128,-1,14
 651 588 651 588 666 588 c 0,15,16
 677 588 677 588 709 604 c 1,17,-1
 709 585 l 1,18,-1
 607 527 l 1,19,20
 580 539 580 539 550 566.5 c 128,-1,21
 520 594 520 594 512 616 c 1,22,23
 458 580 458 580 431.5 511.5 c 128,-1,24
 405 443 405 443 405 367 c 1,25,-1
 581 367 l 1,26,-1
 544 325 l 1,27,28
 498 331 498 331 405 333 c 1,29,30
 405 290 405 290 412 247 c 128,-1,31
 419 204 419 204 435 157.5 c 128,-1,32
 451 111 451 111 486 82 c 128,-1,33
 521 53 521 53 570 53 c 0,34,35
 613 53 613 53 676 96 c 1,36,-1
 676 74 l 1,37,-1
 565 -16 l 1,38,39
 530 -27 530 -27 517 -27 c 0,40,41
 452 -27 452 -27 412 26.5 c 128,-1,42
 372 80 372 80 357 154 c 1,43,-1
 315 112 l 2,44,45
 256 53 256 53 208 21 c 0,46,47
 145 -22 145 -22 112 -22 c 0,48,49
 61 -22 61 -22 27 32 c 1,50,-1
 86 101 l 1,51,52
 112 48 112 48 165 48 c 0,53,54
 217 48 217 48 264 95 c 0,55,56
 336 167 336 167 336 333 c 1,57,58
 219 333 219 333 160 325 c 1,59,-1
 197 367 l 1,60,-1
 336 367 l 1,61,62
 336 438 336 438 331 474 c 0,63,64
 324 518 324 518 294 556 c 128,-1,65
 264 594 264 594 224 594 c 0,66,67
 159 594 159 594 95 512 c 1,68,-1
 78 527 l 1,0,-1
EndSplineSet
EndChar

StartChar: Y
Encoding: 89 89 59
Width: 833
VWidth: 1000
Flags: W
HStem: -219 48<351.609 463.419> -21 79<325.195 417.846> -4 21G<26 77> 54 70<124.56 215.491> 623 63<166.827 266.841>
VStem: 28 66<497.613 565.649> 113 74<321.491 399> 353 79<314.817 512.876> 661 80<107.295 511.478>
LayerCount: 2
Fore
SplineSet
353 397 m 0,0,1
 353 486 353 486 310 554.5 c 128,-1,2
 267 623 267 623 195 623 c 0,3,4
 94 623 94 623 94 551 c 0,5,6
 94 520 94 520 140.5 467 c 128,-1,7
 187 414 187 414 187 384 c 0,8,9
 187 341 187 341 153.5 309.5 c 128,-1,10
 120 278 120 278 64 250 c 1,11,-1
 49 261 l 1,12,13
 75 275 75 275 94 297.5 c 128,-1,14
 113 320 113 320 113 342 c 0,15,16
 113 352 113 352 100 369 c 0,17,18
 93 379 93 379 76.5 400 c 128,-1,19
 60 421 60 421 51.5 433 c 128,-1,20
 43 445 43 445 35.5 464 c 128,-1,21
 28 483 28 483 28 502 c 0,22,23
 28 549 28 549 79 600 c 0,24,25
 165 686 165 686 262 686 c 0,26,27
 314 686 314 686 358.5 640.5 c 128,-1,28
 403 595 403 595 421 537 c 1,29,-1
 426 542 l 2,30,31
 528 644 528 644 618 686 c 1,32,33
 650 646 650 646 725 596 c 1,34,35
 741 516 741 516 741 341 c 0,36,37
 741 109 741 109 676 -16 c 1,38,39
 622 -98 622 -98 532.5 -158.5 c 128,-1,40
 443 -219 443 -219 362 -219 c 0,41,42
 319 -219 319 -219 281 -201.5 c 128,-1,43
 243 -184 243 -184 229 -149 c 1,44,-1
 296 -78 l 1,45,-1
 306 -78 l 1,46,47
 314 -116 314 -116 345 -143.5 c 128,-1,48
 376 -171 376 -171 416 -171 c 0,49,50
 460 -171 460 -171 489 -157 c 128,-1,51
 518 -143 518 -143 551 -111 c 0,52,53
 618 -46 618 -46 639.5 61 c 128,-1,54
 661 168 661 168 661 314 c 0,55,56
 661 446 661 446 634 527 c 1,57,58
 582 585 582 585 544 601 c 1,59,60
 536 598 536 598 519 589 c 128,-1,61
 502 580 502 580 474 558 c 128,-1,62
 446 536 446 536 428 512 c 1,63,64
 432 493 432 493 432 468 c 0,65,66
 428 307 428 307 362 207 c 1,67,-1
 246 115 l 1,68,69
 264 110 264 110 317 84 c 128,-1,70
 370 58 370 58 400 58 c 0,71,72
 443 58 443 58 485 106 c 1,73,-1
 494 90 l 1,74,75
 493 88 493 88 483 75 c 128,-1,76
 473 62 473 62 470 58.5 c 128,-1,77
 467 55 467 55 457 42.5 c 128,-1,78
 447 30 447 30 442.5 25.5 c 128,-1,79
 438 21 438 21 429 11.5 c 128,-1,80
 420 2 420 2 413.5 -2 c 128,-1,81
 407 -6 407 -6 399 -11.5 c 128,-1,82
 391 -17 391 -17 384 -19 c 128,-1,83
 377 -21 377 -21 370 -21 c 0,84,85
 334 -21 334 -21 263 20 c 0,86,87
 203 54 203 54 163 54 c 0,88,89
 117 54 117 54 37 -4 c 1,90,-1
 26 11 l 1,91,92
 61 48 61 48 148 124 c 1,93,94
 200 124 200 124 216 122 c 1,95,96
 353 197 353 197 353 397 c 0,0,1
EndSplineSet
EndChar

StartChar: Z
Encoding: 90 90 60
Width: 602
VWidth: 1000
Flags: W
HStem: -139 30<182 311.394> -16 53<72.6316 164.5> 298 74<224 281.47> 319 59<248.219 375.145> 591 81<170.18 308.149> 601 75<169.069 360.28>
VStem: 112 85<-94.0414 -37.3059> 384 85<513.958 616> 442 91<67.588 254.192>
LayerCount: 2
Fore
SplineSet
181 309 m 1,0,-1
 224 372 l 1,1,2
 285 376 285 376 334.5 428.5 c 128,-1,3
 384 481 384 481 384 543 c 0,4,5
 384 570 384 570 361 585.5 c 128,-1,6
 338 601 338 601 309 601 c 0,7,8
 282 601 282 601 225 596 c 128,-1,9
 168 591 168 591 160 591 c 0,10,11
 91 591 91 591 91 633 c 1,12,-1
 160 729 l 1,13,-1
 176 729 l 1,14,15
 168 715 168 715 168 705 c 0,16,17
 168 689 168 689 183.5 681 c 128,-1,18
 199 673 199 673 213 672 c 128,-1,19
 227 671 227 671 251 671 c 0,20,21
 261 671 261 671 300 673.5 c 128,-1,22
 339 676 339 676 357 676 c 0,23,24
 408 676 408 676 438.5 656 c 128,-1,25
 469 636 469 636 469 596 c 0,26,27
 469 479 469 479 297 374 c 1,28,-1
 302 372 l 1,29,30
 334 378 334 378 357 378 c 0,31,32
 471 378 471 378 517 309 c 1,33,34
 533 255 533 255 533 197 c 0,35,36
 533 71 533 71 453 -48 c 1,37,38
 343 -139 343 -139 208 -139 c 0,39,40
 156 -139 156 -139 112 -128 c 1,41,42
 112 -51.024 112 -51.024 106.888 -36.8475 c 0,43,44
 99.3696 -16 99.3696 -16 75 -16 c 0,45,46
 58 -16 58 -16 23 -42 c 1,47,-1
 11 -27 l 1,48,49
 89 37 89 37 149 37 c 0,50,51
 180 37 180 37 188.5 22.5 c 128,-1,52
 197 8 197 8 197 -43 c 0,53,54
 197 -80 197 -80 211.5 -94.5 c 128,-1,55
 226 -109 226 -109 259 -109 c 0,56,57
 308 -109 308 -109 345.5 -83.5 c 128,-1,58
 383 -58 383 -58 403 -16.5 c 128,-1,59
 423 25 423 25 432.5 69 c 128,-1,60
 442 113 442 113 442 159 c 0,61,62
 442 243 442 243 398 281 c 128,-1,63
 354 319 354 319 283 319 c 0,64,65
 234 319 234 319 192 298 c 1,66,-1
 181 309 l 1,0,-1
EndSplineSet
EndChar

StartChar: bracketleft
Encoding: 91 91 61
Width: 278
VWidth: 1000
Flags: W
HStem: -120 24<213.385 279> 712 24<213.385 279>
VStem: 120 40<-83 699>
LayerCount: 2
Fore
SplineSet
279 712 m 1,0,-1
 160 699 l 1,1,-1
 160 -83 l 1,2,-1
 279 -96 l 1,3,-1
 279 -120 l 1,4,5
 172 -120 172 -120 120 -125 c 1,6,-1
 120 741 l 1,7,8
 159 736 159 736 279 736 c 1,9,-1
 279 712 l 1,0,-1
EndSplineSet
EndChar

StartChar: bracketright
Encoding: 93 93 62
Width: 278
VWidth: 1000
Flags: W
HStem: -120 24<-1 64.6148> 712 24<-1 64.6148>
VStem: 118 40<-83 699>
LayerCount: 2
Fore
SplineSet
118 699 m 1,0,-1
 -1 712 l 1,1,-1
 -1 736 l 1,2,3
 119 736 119 736 158 741 c 1,4,-1
 158 -125 l 1,5,6
 106 -120 106 -120 -1 -120 c 1,7,-1
 -1 -96 l 1,8,-1
 118 -83 l 1,9,-1
 118 699 l 1,0,-1
EndSplineSet
EndChar

StartChar: asciicircum
Encoding: 94 94 63
Width: 500
VWidth: 1000
Flags: W
HStem: 452 283
LayerCount: 2
Fore
SplineSet
251 735 m 1,0,-1
 495 486 l 1,1,-1
 456 459 l 1,2,-1
 248 673 l 1,3,-1
 23 452 l 1,4,-1
 0 464 l 1,5,-1
 251 735 l 1,0,-1
EndSplineSet
EndChar

StartChar: a
Encoding: 97 97 64
Width: 500
VWidth: 1000
Flags: W
HStem: 451 20G<222.113 275.5 374.588 422>
VStem: 65 80<122.281 362.15> 329 79<119 364.093>
LayerCount: 2
Fore
SplineSet
329 91 m 1,0,-1
 154 -36 l 1,1,2
 112 9 112 9 67 65 c 1,3,4
 65 95 65 95 65 156 c 0,5,6
 65 274 65 274 85 365 c 1,7,-1
 254 471 l 1,8,9
 297 442 297 442 347 431 c 1,10,-1
 414 465 l 1,11,-1
 422 459 l 1,12,13
 407 358 407 358 407 256 c 0,14,15
 407 165 407 165 408 119 c 1,16,-1
 444 74 l 1,17,18
 468 82 468 82 490 96 c 1,19,-1
 497 83 l 1,20,-1
 374 -27 l 1,21,-1
 329 46 l 1,22,-1
 329 91 l 1,0,-1
329 119 m 1,23,-1
 328 365 l 1,24,25
 275 365 275 365 186 392 c 1,26,27
 167 373 167 373 157.5 335 c 128,-1,28
 148 297 148 297 146.5 271 c 128,-1,29
 145 245 145 245 145 201 c 0,30,31
 145 162 145 162 148 121 c 1,32,33
 202 55 202 55 215 55 c 0,34,35
 235 55 235 55 329 119 c 1,23,-1
EndSplineSet
EndChar

StartChar: b
Encoding: 98 98 65
Width: 513
VWidth: 1000
Flags: W
HStem: 450 20G<298.5 356.5>
VStem: 93 17<639.533 668> 100 78<101.821 347.829 365 590.22> 363 81<98.0652 373.106>
LayerCount: 2
Fore
SplineSet
135 599 m 1,0,-1
 255 686 l 1,1,-1
 272 673 l 2,2,3
 271 673 271 673 242 647 c 0,4,5
 223 631 223 631 210 608 c 128,-1,6
 197 585 197 585 190.5 567.5 c 128,-1,7
 184 550 184 550 180.5 516.5 c 128,-1,8
 177 483 177 483 176.5 469 c 128,-1,9
 176 455 176 455 176.5 414 c 128,-1,10
 177 373 177 373 177 365 c 1,11,-1
 184 363 l 1,12,13
 273 438 273 438 324 470 c 1,14,15
 389 433 389 433 441 409 c 1,16,17
 444 361 444 361 444 313 c 0,18,19
 444 192 444 192 424 97 c 1,20,21
 293 13 293 13 196 -31 c 1,22,23
 112 44 112 44 86 71 c 1,24,25
 100 144 100 144 100 307 c 0,26,27
 100 528 100 528 93 668 c 1,28,-1
 110 672 l 1,29,-1
 127 595 l 1,30,-1
 135 599 l 1,0,-1
178 332 m 1,31,-1
 178 123 l 1,32,33
 257 42 257 42 285 42 c 0,34,35
 309 42 309 42 325.5 60.5 c 128,-1,36
 342 79 342 79 349.5 110 c 128,-1,37
 357 141 357 141 360 169 c 128,-1,38
 363 197 363 197 363 227 c 0,39,40
 363 299 363 299 359 340 c 1,41,42
 347 356 347 356 274 386 c 1,43,44
 242 382 242 382 178 332 c 1,31,-1
EndSplineSet
EndChar

StartChar: c
Encoding: 99 99 66
Width: 389
VWidth: 1000
Flags: W
HStem: 446 20G<216.961 272.5>
VStem: 72 83<137.719 364.692>
LayerCount: 2
Fore
SplineSet
359 92 m 1,0,-1
 187 -29 l 1,1,2
 137 14 137 14 77 84 c 1,3,4
 72 159 72 159 72 218 c 0,5,6
 72 307 72 307 84 363 c 1,7,-1
 249 466 l 1,8,9
 296 462 296 462 357 422 c 1,10,-1
 305 343 l 1,11,-1
 296 340 l 1,12,13
 270 363 270 363 236.5 378.5 c 128,-1,14
 203 394 203 394 176 394 c 1,15,16
 155 359 155 359 155 246 c 0,17,18
 155 189 155 189 162 147 c 1,19,20
 181 117 181 117 246 58 c 1,21,22
 285 70 285 70 351 109 c 1,23,-1
 359 92 l 1,0,-1
EndSplineSet
EndChar

StartChar: d
Encoding: 100 100 67
Width: 499
VWidth: 1000
Flags: W
VStem: 73 79<118.435 349.748> 349 81<127.164 425.123>
LayerCount: 2
Fore
SplineSet
401 109 m 1,0,-1
 214 -34 l 1,1,2
 118 31 118 31 76 81 c 1,3,4
 73 126 73 126 73 166 c 0,5,6
 73 221 73 221 79 335 c 1,7,8
 164 416 164 416 211 447 c 1,9,-1
 230 443 l 1,10,11
 184 393 184 393 165 346 c 0,12,13
 152 313 152 313 152 254 c 0,14,15
 152 219 152 219 159 135 c 1,16,17
 174 116 174 116 204 94 c 0,18,19
 265 49 265 49 284 49 c 0,20,21
 293 49 293 49 299 59 c 0,22,23
 349 138 349 138 349 267 c 0,24,25
 349 333 349 333 337 399 c 1,26,27
 197 546 197 546 96 546 c 0,28,29
 75 546 75 546 72 545 c 2,30,-1
 26 527 l 1,31,-1
 13 543 l 1,32,33
 63 571 63 571 151 612 c 1,34,35
 252 598 252 598 427 455 c 1,36,37
 430 401 430 401 430 328 c 0,38,39
 430 250 430 250 425 202 c 128,-1,40
 420 154 420 154 401 109 c 1,0,-1
EndSplineSet
EndChar

StartChar: e
Encoding: 101 101 68
Width: 401
VWidth: 1000
Flags: W
HStem: 447 20G<213.921 269>
VStem: 70 81<118.102 183.574 193 363.126>
LayerCount: 2
Fore
SplineSet
84 366 m 1,0,-1
 246 467 l 1,1,2
 292 409 292 409 364 358 c 1,3,4
 223 223 223 223 151 166 c 1,5,6
 151 153 151 153 156 140 c 1,7,8
 158 129 158 129 192.5 101.5 c 128,-1,9
 227 74 227 74 256 61 c 0,10,11
 257 61 257 61 266.5 62 c 128,-1,12
 276 63 276 63 279 64 c 2,13,-1
 353 103 l 1,14,-1
 358 87 l 1,15,16
 269 18 269 18 189 -31 c 1,17,18
 109 43 109 43 75 85 c 1,19,20
 70 128 70 128 70 188 c 0,21,22
 70 274 70 274 84 366 c 1,0,-1
148 193 m 1,23,24
 230 253 230 253 284 312 c 1,25,26
 223 351 223 351 176 396 c 0,27,28
 176 397 176 397 174 397 c 0,29,30
 148 397 148 397 148 193 c 1,23,24
EndSplineSet
EndChar

StartChar: f
Encoding: 102 102 69
Width: 326
VWidth: 1000
Flags: W
HStem: 351 37<45 118 206 312> 615 64<163.668 226.986>
VStem: 91 39<512.535 595.994> 120 82<-72.8176 351>
LayerCount: 2
Fore
SplineSet
206 351 m 1,0,-1
 202 145 l 1,1,2
 202 39 202 39 191 -25.5 c 128,-1,3
 180 -90 180 -90 146 -150 c 2,4,-1
 96 -238 l 1,5,-1
 77 -231 l 1,6,-1
 103 -141 l 2,7,8
 120 -84 120 -84 120 128 c 0,9,10
 120 275 120 275 119 351 c 1,11,-1
 30 351 l 1,12,-1
 45 386 l 1,13,-1
 118 386 l 1,14,15
 118 394 118 394 104.5 451.5 c 128,-1,16
 91 509 91 509 91 528 c 0,17,18
 91 608 91 608 192 679 c 1,19,20
 277 679 277 679 316 639 c 1,21,-1
 269 547 l 1,22,-1
 259 546 l 1,23,24
 227 615 227 615 181 615 c 0,25,26
 130 615 130 615 130 568 c 0,27,28
 130 549 130 549 151 509 c 2,29,-1
 201 414 l 2,30,31
 206 406 206 406 210 388 c 1,32,-1
 324 388 l 1,33,-1
 312 351 l 1,34,-1
 206 351 l 1,0,-1
EndSplineSet
EndChar

StartChar: g
Encoding: 103 103 70
Width: 504
VWidth: 1000
Flags: W
HStem: -209 74<221.569 300.637> -144 21G<16 62> 450 20G<203.5 272.5 401 443>
VStem: 74 81<96.5967 368.556> 340 80<83.1952 97 123 347.991> 349 71<127.116 354.097>
LayerCount: 2
Fore
SplineSet
16 -131 m 1,0,1
 67 -96 67 -96 150 -24 c 1,2,-1
 78 65 l 1,3,4
 74 133 74 133 74 168 c 0,5,6
 74 269 74 269 89 368 c 1,7,8
 156 414 156 414 251 470 c 1,9,10
 294 441 294 441 365 425 c 1,11,-1
 437 465 l 1,12,-1
 443 459 l 1,13,14
 434 441 434 441 429 417 c 128,-1,15
 424 393 424 393 422 357 c 128,-1,16
 420 321 420 321 420 297 c 128,-1,17
 420 273 420 273 420.5 222 c 128,-1,18
 421 171 421 171 421 150 c 0,19,20
 421 131 421 131 426 109 c 2,21,-1
 455 -17 l 1,22,23
 363 -132 363 -132 292 -201 c 1,24,25
 268 -209 268 -209 256 -209 c 0,26,27
 165 -209 165 -209 62 -125 c 1,28,-1
 27 -144 l 1,29,-1
 16 -131 l 1,0,1
342 97 m 1,30,31
 246 30 246 30 147 -55 c 1,32,33
 227 -135 227 -135 295 -135 c 0,34,35
 329 -135 329 -135 349 -108.5 c 128,-1,36
 369 -82 369 -82 369 -45 c 0,37,38
 369 -18 369 -18 342 97 c 1,30,31
228 41 m 1,39,-1
 340 123 l 1,40,41
 340 255 340 255 349 351 c 1,42,43
 231 367 231 367 173 394 c 1,44,45
 155 349 155 349 155 260 c 0,46,47
 155 180 155 180 160 124 c 1,48,49
 180 85 180 85 228 41 c 1,39,-1
EndSplineSet
EndChar

StartChar: h
Encoding: 104 104 71
Width: 521
VWidth: 1000
Flags: W
HStem: 669 20G<236 255>
VStem: 76 83<126 314.875> 81 12<654.301 675> 87 77<189.062 357.652 371 590.134> 356.021 78.9787<-3.52759 349.808>
LayerCount: 2
Fore
SplineSet
228 -184 m 1,0,-1
 292 -129 l 1,1,2
 315 -113 315 -113 329 -79.5 c 128,-1,3
 343 -46 343 -46 348.5 5 c 128,-1,4
 354 56 354 56 355 88.5 c 128,-1,5
 356 121 356 121 356.021 176.527 c 0,6,7
 356 188 356 188 356 193 c 0,8,9
 356 219 356 219 346 354 c 1,10,11
 297 390 297 390 258 390 c 0,12,13
 225 390 225 390 164 341 c 1,14,-1
 159 126 l 1,15,-1
 213 49 l 1,16,-1
 131 -26 l 1,17,-1
 76 65 l 1,18,19
 87 257 87 257 87 431 c 0,20,21
 87 578 87 578 81 675 c 1,22,-1
 93 677 l 1,23,-1
 117 601 l 1,24,25
 234 689 234 689 238 689 c 1,26,-1
 255 678 l 1,27,28
 199 626 199 626 182 580 c 128,-1,29
 165 534 165 534 165 481 c 2,30,-1
 164 371 l 1,31,32
 203 401 203 401 312 478 c 1,33,34
 354 440 354 440 428 417 c 1,35,36
 435 317 435 317 435 246 c 0,37,38
 435 60 435 60 408 -31 c 1,39,40
 350 -116 350 -116 244 -198 c 1,41,-1
 228 -184 l 1,0,-1
EndSplineSet
EndChar

StartChar: i
Encoding: 105 105 72
Width: 279
VWidth: 1000
Flags: W
HStem: -21 21G<130.789 179>
VStem: 94 77<92.3145 367>
LayerCount: 2
Fore
SplineSet
27 369 m 1,0,-1
 14 382 l 1,1,2
 64 423 64 423 119 475 c 1,3,4
 154 438 154 438 179 420 c 1,5,6
 171 351 171 351 171 239 c 0,7,8
 171 233 171 233 171 212 c 128,-1,9
 171 191 171 191 171 184.5 c 128,-1,10
 171 178 171 178 172 161 c 128,-1,11
 173 144 173 144 175.5 136 c 128,-1,12
 178 128 178 128 182 115.5 c 128,-1,13
 186 103 186 103 192.5 93.5 c 128,-1,14
 199 84 199 84 208 75 c 1,15,16
 226 75 226 75 261 102 c 1,17,-1
 268 83 l 1,18,19
 213 31 213 31 145 -21 c 1,20,-1
 91 55 l 1,21,22
 94 108 94 108 94 194 c 0,23,24
 94 288 94 288 90 367 c 1,25,-1
 69 391 l 1,26,27
 44 382 44 382 27 369 c 1,0,-1
187 616 m 1,28,-1
 130 556 l 1,29,30
 105 579 105 579 72 617 c 1,31,32
 78 623 78 623 100 643 c 128,-1,33
 122 663 122 663 132 675 c 1,34,35
 173 627 173 627 187 616 c 1,28,-1
EndSplineSet
EndChar

StartChar: j
Encoding: 106 106 73
Width: 281
VWidth: 1000
Flags: W
VStem: 118 72<-43.0793 373.383>
LayerCount: 2
Fore
SplineSet
168 -44 m 1,0,1
 101 -126 101 -126 7 -202 c 1,2,-1
 -9 -184 l 1,3,4
 45 -143 45 -143 74 -113 c 0,5,6
 94 -93 94 -93 104 -38 c 128,-1,7
 114 17 114 17 116 68 c 128,-1,8
 118 119 118 119 118 203 c 0,9,10
 118 322 118 322 108 352 c 0,11,12
 104 364 104 364 93 376.5 c 128,-1,13
 82 389 82 389 76 389 c 0,14,15
 71 389 71 389 68 386 c 2,16,-1
 39 367 l 1,17,-1
 25 380 l 1,18,-1
 131 475 l 1,19,20
 154 458 154 458 196 422 c 1,21,22
 196 180 196 180 190 26 c 0,23,24
 188 -22 188 -22 168 -44 c 1,0,1
183 615 m 1,25,-1
 125 555 l 1,26,27
 111 567 111 567 71 616 c 1,28,-1
 132 673 l 1,29,30
 159 638 159 638 183 615 c 1,25,-1
EndSplineSet
EndChar

StartChar: k
Encoding: 107 107 74
Width: 389
VWidth: 1000
Flags: W
HStem: 308 35<33 94 173 233.562 251 332>
VStem: 88 35<593 669> 88 17<642.504 669> 94 79<107.18 308 343 480.125> 288 72<434.693 493.287>
LayerCount: 2
Fore
SplineSet
350 110 m 1,0,-1
 363 95 l 1,1,2
 329 65 329 65 195 -26 c 1,3,-1
 88 69 l 1,4,5
 94 98 94 98 94 127 c 2,6,-1
 94 308 l 1,7,-1
 24 308 l 1,8,-1
 33 343 l 1,9,-1
 95 343 l 1,10,11
 95 594 95 594 88 669 c 1,12,-1
 105 673 l 1,13,14
 109 662 109 662 113.5 642.5 c 128,-1,15
 118 623 118 623 120.5 608.5 c 128,-1,16
 123 594 123 594 123 593 c 1,17,18
 213 663 213 663 253 686 c 1,19,-1
 269 676 l 1,20,21
 214 625 214 625 196 589 c 128,-1,22
 178 553 178 553 173 498 c 1,23,24
 178 502 178 502 300 585 c 1,25,26
 360 527 360 527 360 483 c 0,27,28
 360 457 360 457 337 434 c 2,29,-1
 251 343 l 1,30,-1
 346 343 l 1,31,-1
 332 308 l 1,32,-1
 173 308 l 1,33,-1
 173 128 l 1,34,35
 206 95 206 95 255 60 c 1,36,37
 263 64 263 64 285 74 c 128,-1,38
 307 84 307 84 322 92.5 c 128,-1,39
 337 101 337 101 350 110 c 1,0,-1
173 343 m 1,40,41
 216 343 216 343 252 374 c 128,-1,42
 288 405 288 405 288 446 c 0,43,44
 288 478 288 478 241 518 c 1,45,46
 229 512 229 512 219 505.5 c 128,-1,47
 209 499 209 499 202 489 c 128,-1,48
 195 479 195 479 190 473.5 c 128,-1,49
 185 468 185 468 182 454 c 128,-1,50
 179 440 179 440 177 435 c 128,-1,51
 175 430 175 430 174 412.5 c 128,-1,52
 173 395 173 395 173 391.5 c 128,-1,53
 173 388 173 388 173 367 c 128,-1,54
 173 346 173 346 173 343 c 1,40,41
EndSplineSet
EndChar

StartChar: l
Encoding: 108 108 75
Width: 280
VWidth: 1000
Flags: W
HStem: -20 21G<134.579 171.925>
VStem: 97 87<97.5469 309.63> 99 17<639.112 668> 105 77<135.181 587.554>
LayerCount: 2
Fore
SplineSet
261 686 m 1,0,-1
 277 673 l 1,1,2
 211 616 211 616 196.5 567.5 c 128,-1,3
 182 519 182 519 182 391 c 0,4,5
 182 302 182 302 184 122 c 1,6,7
 196 104 196 104 226 81 c 1,8,9
 244 86 244 86 266 104 c 1,10,-1
 276 87 l 1,11,-1
 148 -20 l 1,12,-1
 97 56 l 1,13,14
 105 200 105 200 105 382 c 0,15,16
 105 554 105 554 99 668 c 1,17,-1
 116 672 l 1,18,-1
 133 594 l 1,19,-1
 261 686 l 1,0,-1
EndSplineSet
EndChar

StartChar: m
Encoding: 109 109 76
Width: 767
VWidth: 1000
Flags: W
HStem: -19 21G<121.75 157.714 627 654.551> 452 20G<94.129 143>
VStem: 92 76<107.319 349> 339 76<84.0508 345.715> 583 78<96.5586 363.87>
LayerCount: 2
Fore
SplineSet
168 376 m 1,0,-1
 295 475 l 1,1,2
 358 437 358 437 415 418 c 1,3,-1
 415 379 l 1,4,5
 496 434 496 434 544 474 c 1,6,7
 630 428 630 428 665 418 c 1,8,9
 661 361 661 361 661 247 c 2,10,-1
 661 126 l 1,11,12
 683 94 683 94 698 79 c 1,13,14
 726 89 726 89 745 105 c 1,15,-1
 757 88 l 1,16,-1
 631 -19 l 1,17,18
 623 -4 623 -4 572 60 c 1,19,20
 583 137 583 137 583 274 c 0,21,22
 583 315 583 315 580 342 c 0,23,24
 579 348 579 348 575 353 c 128,-1,25
 571 358 571 358 563 362.5 c 128,-1,26
 555 367 555 367 548.5 370 c 128,-1,27
 542 373 542 373 530 377 c 128,-1,28
 518 381 518 381 512.5 382.5 c 128,-1,29
 507 384 507 384 494 387.5 c 128,-1,30
 481 391 481 391 480 391 c 0,31,32
 443 372 443 372 415 353 c 1,33,-1
 415 135 l 2,34,35
 415 121 415 121 424 104.5 c 128,-1,36
 433 88 433 88 465 47 c 1,37,-1
 379 -26 l 1,38,39
 366 1 366 1 325 46 c 1,40,41
 339 107 339 107 339 248 c 0,42,43
 339 306 339 306 334 347 c 1,44,45
 308 370 308 370 229 391 c 1,46,-1
 168 349 l 1,47,-1
 168 152 l 2,48,49
 168 117 168 117 173 107 c 128,-1,50
 178 97 178 97 217 48 c 1,51,-1
 134 -22 l 1,52,-1
 85 58 l 1,53,54
 92 114 92 114 92 177 c 0,55,56
 92 281 92 281 88 365 c 1,57,-1
 62 391 l 1,58,-1
 19 367 l 1,59,-1
 7 379 l 1,60,-1
 118 472 l 1,61,62
 168 422 168 422 168 420 c 2,63,-1
 168 376 l 1,0,-1
EndSplineSet
EndChar

StartChar: n
Encoding: 110 110 77
Width: 527
VWidth: 1000
Flags: W
HStem: -23 25G<121 155.2 380.905 416.679> 450 20G<121 129.5>
VStem: 90 86<79.9375 341> 347 82<92.5088 364.031>
LayerCount: 2
Fore
SplineSet
176 367 m 1,0,-1
 320 475 l 1,1,2
 370 441 370 441 433 417 c 1,3,4
 425 331 425 331 425 253 c 1,5,-1
 429 127 l 2,6,7
 430 125 430 125 434.5 117 c 128,-1,8
 439 109 439 109 442 104.5 c 128,-1,9
 445 100 445 100 449.5 94 c 128,-1,10
 454 88 454 88 458.5 85 c 128,-1,11
 463 82 463 82 468 82 c 0,12,13
 470 82 470 82 478 87 c 2,14,-1
 509 109 l 1,15,-1
 521 93 l 1,16,-1
 394 -19 l 1,17,-1
 339 65 l 1,18,19
 347 112 347 112 347 195 c 0,20,21
 347 271 347 271 342 358 c 1,22,23
 300 380 300 380 241 385 c 1,24,-1
 176 341 l 1,25,-1
 172 134 l 2,26,27
 172 115 172 115 179 106 c 2,28,-1
 219 52 l 1,29,-1
 132 -23 l 1,30,31
 110 16 110 16 83 46 c 1,32,33
 94 109 94 109 94 211 c 0,34,35
 94 267 94 267 90 365 c 1,36,-1
 66 388 l 1,37,-1
 31 368 l 1,38,-1
 18 380 l 1,39,40
 120 470 120 470 122 470 c 1,41,42
 137 454 137 454 176 425 c 1,43,-1
 176 367 l 1,0,-1
EndSplineSet
EndChar

StartChar: o
Encoding: 111 111 78
Width: 489
VWidth: 1000
Flags: W
VStem: 66 81<124.129 316.541> 334 79<100.95 358.794>
LayerCount: 2
Fore
SplineSet
165 -28 m 1,0,1
 97 30 97 30 66 68 c 1,2,3
 66 228 66 228 84 364 c 1,4,5
 162 409 162 409 260 481 c 1,6,7
 337 429 337 429 408 415 c 1,8,9
 413 352 413 352 413 302 c 0,10,11
 413 187 413 187 391 92 c 1,12,13
 269 14 269 14 165 -28 c 1,0,1
268 44 m 0,14,15
 274 44 274 44 290 63 c 0,16,17
 297 72 297 72 303 82.5 c 128,-1,18
 309 93 309 93 313.5 102 c 128,-1,19
 318 111 318 111 321 126 c 128,-1,20
 324 141 324 141 326.5 150 c 128,-1,21
 329 159 329 159 330.5 178.5 c 128,-1,22
 332 198 332 198 332.5 207.5 c 128,-1,23
 333 217 333 217 333.5 241 c 128,-1,24
 334 265 334 265 334 275.5 c 128,-1,25
 334 286 334 286 334 315 c 128,-1,26
 334 344 334 344 334 356 c 1,27,28
 278 360 278 360 185 401 c 1,29,30
 147 336 147 336 147 211 c 0,31,32
 147 159 147 159 153 123 c 1,33,34
 211 52 211 52 268 44 c 0,14,15
EndSplineSet
EndChar

StartChar: p
Encoding: 112 112 79
Width: 500
VWidth: 1000
Flags: W
HStem: -18 21G<244.5 298.047>
VStem: 42 79<421 497> 78 91<-170 35.7988> 88 78<-170 37 106 360.385> 349 81<90.7113 360.629>
LayerCount: 2
Fore
SplineSet
169 -170 m 1,0,-1
 89 -214 l 1,1,-1
 78 -207 l 1,2,3
 87 -20 87 -20 87 47 c 1,4,5
 49 47 49 47 23 24 c 1,6,-1
 12 38 l 1,7,8
 74 95 74 95 88 105 c 1,9,-1
 88 352 l 1,10,11
 82 360 82 360 75 370 c 128,-1,12
 68 380 68 380 64 385 c 128,-1,13
 60 390 60 390 55.5 396 c 128,-1,14
 51 402 51 402 49 405.5 c 128,-1,15
 47 409 47 409 45 412.5 c 128,-1,16
 43 416 43 416 42.5 418 c 128,-1,17
 42 420 42 420 42 422 c 0,18,19
 42 458 42 458 125 538 c 1,20,-1
 139 529 l 1,21,22
 121 507 121 507 121 487 c 0,23,24
 121 452 121 452 167 406 c 1,25,26
 167 396 167 396 165 372 c 1,27,28
 216 406 216 406 307 478 c 1,29,30
 352 442 352 442 425 414 c 1,31,32
 430 341 430 341 430 282 c 0,33,34
 430 152 430 152 407 89 c 1,35,-1
 273 -18 l 1,36,37
 216 28 216 28 165 37 c 1,38,39
 165 -78 165 -78 169 -170 c 1,0,-1
166 347 m 1,40,-1
 166 106 l 1,41,42
 213 106 213 106 323 52 c 1,43,44
 349 101 349 101 349 230 c 0,45,46
 349 271 349 271 343 353 c 1,47,48
 311 370 311 370 247 391 c 1,49,50
 219 380 219 380 166 347 c 1,40,-1
EndSplineSet
EndChar

StartChar: q
Encoding: 113 113 80
Width: 489
VWidth: 1000
Flags: W
VStem: 59 79<107.02 365.994> 312 94<-179 48.3867> 320 79<-154.825 93 106.766 366.105>
LayerCount: 2
Fore
SplineSet
406 -179 m 1,0,-1
 323 -224 l 1,1,-1
 312 -214 l 1,2,3
 320 -18 320 -18 320 93 c 1,4,5
 251 37 251 37 146 -29 c 1,6,-1
 62 65 l 1,7,8
 59 108 59 108 59 151 c 0,9,10
 59 273 59 273 82 369 c 1,11,12
 195 431 195 431 247 473 c 1,13,14
 299 441 299 441 340 432 c 1,15,-1
 410 480 l 1,16,-1
 418 473 l 1,17,18
 399 365 399 365 399 141 c 0,19,20
 399 -74 399 -74 406 -179 c 1,0,-1
218 50 m 1,21,22
 238 61 238 61 319 121 c 1,23,24
 319 267 319 267 324 367 c 1,25,26
 264 371 264 371 174 398 c 1,27,28
 138 334 138 334 138 200 c 0,29,30
 138 147 138 147 139 144 c 1,31,32
 139 120 139 120 218 50 c 1,21,22
EndSplineSet
EndChar

StartChar: r
Encoding: 114 114 81
Width: 389
VWidth: 1000
Flags: W
HStem: -21 21G<179.5 228.077> 335 63<286 362.5> 449 20G<265.943 310.5>
VStem: 103 79<105.652 365.285>
LayerCount: 2
Fore
SplineSet
182 382 m 1,0,-1
 291 469 l 1,1,2
 330 398 330 398 357 398 c 0,3,4
 368 398 368 398 395 413 c 1,5,-1
 394 400 l 1,6,-1
 335 345 l 2,7,8
 324 335 324 335 302 335 c 0,9,10
 270 335 270 335 219 384 c 1,11,12
 190 362 190 362 182 350 c 1,13,-1
 182 152 l 2,14,15
 182 114 182 114 255 60 c 1,16,-1
 344 102 l 1,17,-1
 346 83 l 1,18,-1
 200 -21 l 1,19,20
 159 11 159 11 97 75 c 1,21,22
 103 134 103 134 103 245 c 0,23,24
 102.851 375.025 102.851 375.025 94 365 c 1,25,26
 85 373 85 373 65 387 c 1,27,-1
 27 371 l 1,28,-1
 15 381 l 1,29,-1
 116 474 l 1,30,31
 147.5 442.5 147.5 442.5 182 414 c 1,32,-1
 182 382 l 1,0,-1
EndSplineSet
EndChar

StartChar: s
Encoding: 115 115 82
Width: 443
VWidth: 1000
Flags: W
HStem: 47 64<49.4609 130.952> 236 6<175 244> 437 20G<378 407>
VStem: 64 79<244.979 375.304> 296 78<49.7689 224.555>
LayerCount: 2
Fore
SplineSet
192 244 m 2,0,-1
 315 300 l 1,1,2
 339 292 339 292 371 262 c 1,3,4
 374 223 374 223 374 185 c 0,5,6
 374 109 374 109 358 50 c 1,7,8
 252 3 252 3 198 -30 c 1,9,10
 119 47 119 47 70 47 c 0,11,12
 31 47 31 47 -19 3 c 1,13,-1
 -28 12 l 1,14,15
 -24 16 -24 16 -7 35.5 c 128,-1,16
 10 55 10 55 19.5 64 c 128,-1,17
 29 73 29 73 45.5 86 c 128,-1,18
 62 99 62 99 78.5 105 c 128,-1,19
 95 111 95 111 113 111 c 0,20,21
 150 111 150 111 185 89 c 1,22,-1
 266 35 l 2,23,24
 267 34 267 34 270 34 c 0,25,26
 296 34 296 34 296 140 c 0,27,28
 296 236 296 236 244 236 c 0,29,30
 226 236 226 236 209 226 c 2,31,-1
 107 168 l 1,32,33
 86 194 86 194 64 235 c 1,34,35
 64 323 64 323 70 377 c 1,36,-1
 222 479 l 1,37,-1
 303 433 l 2,38,39
 315 427 315 427 329 427 c 0,40,41
 355 427 355 427 401 457 c 1,42,-1
 407 441 l 1,43,-1
 315 363 l 1,44,45
 211 369 211 369 163 415 c 1,46,47
 143 396 143 396 143 336 c 0,48,49
 143 303 143 303 150.5 272.5 c 128,-1,50
 158 242 158 242 175 242 c 0,51,52
 187 242 187 242 192 244 c 2,0,-1
EndSplineSet
EndChar

StartChar: t
Encoding: 116 116 83
Width: 333
VWidth: 1000
Flags: W
HStem: -21 21G<188.627 239.677> 351 35<42 115 195 285>
VStem: 115 79<105.719 351 386 558>
LayerCount: 2
Fore
SplineSet
228 641 m 1,0,-1
 242 627 l 1,1,-1
 215 601 l 2,2,3
 208 594 208 594 206 582 c 0,4,5
 194 512 194 512 194 386 c 1,6,-1
 302 386 l 1,7,-1
 285 351 l 1,8,-1
 195 351 l 1,9,-1
 196 123 l 1,10,11
 258 68 258 68 276 68 c 0,12,13
 299 68 299 68 346 100 c 1,14,-1
 349 78 l 1,15,-1
 212 -21 l 1,16,-1
 115 62 l 1,17,18
 115 254 115 254 116 351 c 1,19,-1
 26 351 l 1,20,-1
 42 386 l 1,21,-1
 115 386 l 1,22,-1
 115 558 l 1,23,-1
 228 641 l 1,0,-1
EndSplineSet
EndChar

StartChar: u
Encoding: 117 117 84
Width: 517
VWidth: 1000
Flags: W
HStem: -18 21G<384 418> 448 20G<382.364 428>
VStem: 97 75<118.934 380.951> 336 92<229.18 424> 339 76<115 424>
LayerCount: 2
Fore
SplineSet
421 468 m 1,0,-1
 428 462 l 1,1,2
 415 359 415 359 415 225 c 0,3,4
 415 196 415 196 415.5 180 c 128,-1,5
 416 164 416 164 419.5 137 c 128,-1,6
 423 110 423 110 432 96.5 c 128,-1,7
 441 83 441 83 455 83 c 0,8,9
 468 83 468 83 508 103 c 1,10,-1
 514 88 l 1,11,12
 444 31 444 31 392 -18 c 1,13,-1
 384 -16 l 1,14,15
 346 48 346 48 333 87 c 1,16,17
 303 67 303 67 264.5 39 c 128,-1,18
 226 11 226 11 203 -7.5 c 2,19,-1
 180 -26 l 1,20,21
 177 -24 177 -24 155.5 -9.5 c 128,-1,22
 134 5 134 5 120.5 13.5 c 128,-1,23
 107 22 107 22 87.5 33 c 128,-1,24
 68 44 68 44 55 48 c 1,25,26
 97 121 97 121 97 264 c 0,27,28
 97 295 97 295 96 313 c 128,-1,29
 95 331 95 331 86.5 356.5 c 128,-1,30
 78 382 78 382 61 396 c 1,31,-1
 23 376 l 1,32,-1
 8 386 l 1,33,-1
 119 474 l 1,34,35
 151 436 151 436 171 421 c 1,36,37
 171 410 171 410 171.5 388.5 c 128,-1,38
 172 367 172 367 172 356 c 0,39,40
 172 197 172 197 146 104 c 1,41,-1
 247 56 l 1,42,-1
 335 115 l 1,43,44
 339 182 339 182 339 264 c 0,45,46
 339 342 339 342 336 424 c 1,47,-1
 421 468 l 1,0,-1
EndSplineSet
EndChar

StartChar: v
Encoding: 118 118 85
Width: 512
VWidth: 1000
Flags: W
VStem: 51 78<409.5 493.5> 92 83<100.752 363.703 374 374> 359 80<114.053 362.292>
LayerCount: 2
Fore
SplineSet
96 231 m 0,0,1
 96 255 96 255 92 345 c 0,2,3
 92 355 92 355 71.5 378 c 128,-1,4
 51 401 51 401 51 418 c 0,5,6
 51 453 51 453 131 533 c 1,7,-1
 145 529 l 1,8,9
 129 504 129 504 129 483 c 0,10,11
 129 460 129 460 175 408 c 1,12,-1
 175 374 l 1,13,-1
 318 477 l 1,14,15
 376 438 376 438 433 416 c 1,16,17
 439 350 439 350 439 245 c 0,18,19
 439 216 439 216 429 165.5 c 128,-1,20
 419 115 419 115 407 86 c 1,21,-1
 192 -28 l 1,22,23
 149 17 149 17 89 66 c 1,24,25
 96 143 96 143 96 231 c 0,0,1
175 348 m 1,26,-1
 172 155 l 2,27,28
 171 120 171 120 206 93 c 1,29,30
 208 93 208 93 235.5 71 c 128,-1,31
 263 49 263 49 285 49 c 0,32,33
 313 49 313 49 330.5 85 c 128,-1,34
 348 121 348 121 353.5 161.5 c 128,-1,35
 359 202 359 202 359 243 c 0,36,37
 359 297 359 297 351 358 c 1,38,39
 321 385 321 385 266 396 c 1,40,41
 236 394 236 394 175 348 c 1,26,-1
EndSplineSet
EndChar

StartChar: w
Encoding: 119 119 86
Width: 774
VWidth: 1000
Flags: W
HStem: 451 20G<532.427 590.75>
VStem: 44 78<409.5 493.5> 88 77<83.6641 348> 339 77<106.396 351.546> 610 83<125.164 349.97>
LayerCount: 2
Fore
SplineSet
418 368 m 1,0,-1
 560 471 l 1,1,2
 621.5 435 621.5 435 686 405 c 1,3,4
 693 366 693 366 693 268 c 0,5,6
 693 245 693 245 691 224.5 c 128,-1,7
 689 204 689 204 687.5 191 c 128,-1,8
 686 178 686 178 680.5 157.5 c 128,-1,9
 675 137 675 137 673 131.5 c 128,-1,10
 671 126 671 126 662 101 c 128,-1,11
 653 76 653 76 652 72 c 1,12,-1
 465 -28 l 1,13,14
 397 14 397 14 331 46 c 1,15,16
 339 140 339 140 339 222 c 0,17,18
 339 292 339 292 334 341 c 1,19,20
 260 392 260 392 240 392 c 0,21,22
 231 392 231 392 218.5 385 c 128,-1,23
 206 378 206 378 188 364.5 c 128,-1,24
 170 351 170 351 166 348 c 1,25,26
 166 335 166 335 165.5 264.5 c 128,-1,27
 165 194 165 194 165 158 c 0,28,29
 165 106 165 106 212 48 c 1,30,-1
 137 -27 l 1,31,32
 105 27 105 27 78 52 c 1,33,34
 88 116 88 116 88 207 c 0,35,36
 88 310 88 310 85 345 c 0,37,38
 84 358 84 358 64 379.5 c 128,-1,39
 44 401 44 401 44 418 c 0,40,41
 44 453 44 453 124 533 c 1,42,-1
 138 529 l 1,43,44
 122 504 122 504 122 483 c 0,45,46
 122 460 122 460 168 408 c 1,47,-1
 168 376 l 1,48,49
 250 433 250 433 291 473 c 1,50,51
 346 438 346 438 419 405 c 1,52,-1
 418 368 l 1,0,-1
498 386 m 0,53,54
 492 386 492 386 483.5 383 c 128,-1,55
 475 380 475 380 465 373.5 c 128,-1,56
 455 367 455 367 448 362.5 c 128,-1,57
 441 358 441 358 430.5 350 c 128,-1,58
 420 342 420 342 418 341 c 1,59,60
 416 267 416 267 416 235 c 0,61,62
 416 196 416 196 419 154 c 0,63,64
 421 117 421 117 462 80.5 c 128,-1,65
 503 44 503 44 548 44 c 0,66,67
 610 44 610 44 610 264 c 0,68,69
 610 302 610 302 598 348 c 1,70,71
 550 378 550 378 498 386 c 0,53,54
EndSplineSet
EndChar

StartChar: x
Encoding: 120 120 87
Width: 389
VWidth: 1000
Flags: W
HStem: -188 49<109.316 134.469> 445 20G<276.506 311>
VStem: 10 55<-104.06 -34.3683> 111 79<119.434 346.333>
LayerCount: 2
Fore
SplineSet
192 376 m 1,0,-1
 301 465 l 1,1,2
 321 433 321 433 370 398 c 1,3,-1
 303 339 l 1,4,5
 286 347 286 347 265.5 368 c 128,-1,6
 245 389 245 389 244 390 c 1,7,8
 211 370 211 370 195 347 c 1,9,10
 190 326 190 326 190 260 c 0,11,12
 190 195 190 195 195 117 c 1,13,14
 250 59 250 59 271 59 c 1,15,16
 291 63 291 63 293 64 c 2,17,-1
 356 98 l 1,18,-1
 359 80 l 1,19,-1
 210 -25 l 1,20,21
 178 11 178 11 126 49 c 1,22,23
 65 -8 65 -8 65 -54 c 0,24,25
 65 -94 65 -94 101.5 -114 c 128,-1,26
 138 -134 138 -134 187 -139 c 1,27,-1
 187 -148 l 1,28,-1
 123 -188 l 1,29,30
 10 -161 10 -161 10 -98 c 0,31,32
 10 -74 10 -74 27.5 -42.5 c 128,-1,33
 45 -11 45 -11 60.5 8.5 c 128,-1,34
 76 28 76 28 104 59 c 1,35,36
 111 108 111 108 111 192 c 0,37,38
 111 313 111 313 108 353 c 1,39,40
 77 386 77 386 68 386 c 0,41,42
 64 386 64 386 46.5 377 c 128,-1,43
 29 368 29 368 27 368 c 1,44,-1
 14 377 l 1,45,46
 52 416 52 416 118 473 c 1,47,48
 189 410 189 410 194 407 c 1,49,-1
 192 376 l 1,0,-1
EndSplineSet
EndChar

StartChar: y
Encoding: 121 121 88
Width: 499
VWidth: 1000
Flags: W
VStem: 45 78<400.5 484.5> 89 78<82.0657 353.335> 350 87<7.34204 352.852>
LayerCount: 2
Fore
SplineSet
89 255 m 1,0,1
 87 329 87 329 86 336 c 0,2,3
 85 349 85 349 65 370 c 128,-1,4
 45 391 45 391 45 410 c 0,5,6
 45 444 45 444 125 524 c 1,7,-1
 139 520 l 1,8,9
 123 495 123 495 123 474 c 0,10,11
 123 451 123 451 169 399 c 1,12,-1
 169 367 l 1,13,-1
 311 473 l 1,14,15
 385 429 385 429 426 414 c 1,16,17
 437 320 437 320 437 228 c 0,18,19
 437 82 437 82 407 -23 c 0,20,21
 398 -55 398 -55 339 -115.5 c 128,-1,22
 280 -176 280 -176 222 -219 c 1,23,-1
 184 -202 l 1,24,25
 246 -171 246 -171 278 -140 c 0,26,27
 304 -114 304 -114 320 -77 c 128,-1,28
 336 -40 336 -40 342 12.5 c 128,-1,29
 348 65 348 65 349 97 c 128,-1,30
 350 129 350 129 350 189 c 0,31,32
 350 255 350 255 339 356 c 1,33,34
 293 385 293 385 259 391 c 1,35,36
 237 391 237 391 170 340 c 1,37,38
 170 318 170 318 169 290 c 128,-1,39
 168 262 168 262 167.5 231 c 128,-1,40
 167 200 167 200 167 152 c 0,41,42
 167 105 167 105 212 48 c 1,43,-1
 137 -27 l 1,44,45
 105 28 105 28 78 52 c 1,46,47
 89 119 89 119 89 255 c 1,0,1
EndSplineSet
EndChar

StartChar: z
Encoding: 122 122 89
Width: 391
VWidth: 1000
Flags: W
HStem: -215 61<113.203 153> 451 20G<145.5 233>
VStem: 204 80<303 394.5> 240 74<-92.9888 128.499>
LayerCount: 2
Fore
SplineSet
290 -99 m 1,0,-1
 153 -215 l 1,1,2
 99 -215 99 -215 50 -188.5 c 128,-1,3
 1 -162 1 -162 -7 -116 c 1,4,5
 4 -75 4 -75 80 13 c 0,6,7
 122 62 122 62 207 147 c 1,8,9
 143 176 143 176 97 181 c 1,10,-1
 97 192 l 1,11,-1
 170 259 l 2,12,13
 204 291 204 291 204 315 c 0,14,15
 204 343 204 343 179 365.5 c 128,-1,16
 154 388 154 388 131 388 c 0,17,18
 112 388 112 388 47 335 c 1,19,-1
 36 347 l 1,20,21
 109 420 109 420 182 471 c 1,22,23
 284 419 284 419 284 370 c 0,24,25
 284 349 284 349 269 334 c 2,26,-1
 188 247 l 1,27,28
 262 221 262 221 300 198 c 1,29,30
 314 143 314 143 314 64 c 0,31,32
 314 -8 314 -8 290 -99 c 1,0,-1
225 130 m 1,33,34
 193 102 193 102 173 83.5 c 128,-1,35
 153 65 153 65 126 35.5 c 128,-1,36
 99 6 99 6 85.5 -21 c 128,-1,37
 72 -48 72 -48 72 -73 c 0,38,39
 72 -103 72 -103 108.5 -128.5 c 128,-1,40
 145 -154 145 -154 183 -154 c 0,41,42
 211 -154 211 -154 225.5 -99.5 c 128,-1,43
 240 -45 240 -45 240 20 c 0,44,45
 240 81 240 81 225 130 c 1,33,34
EndSplineSet
EndChar

StartChar: quotedbl
Encoding: 125 34 90
Width: 215
VWidth: 1000
Flags: W
HStem: 432 263<34 55 155 176>
VStem: 9 67<557.805 693.664> 128 68<556.47 690.5>
LayerCount: 2
Fore
SplineSet
34 432 m 1,0,-1
 14 584 l 2,1,2
 9 624 9 624 9 657 c 0,3,4
 9 695 9 695 43 695 c 0,5,6
 55 695 55 695 65.5 690 c 128,-1,7
 76 685 76 685 76 675 c 2,8,-1
 76 623 l 1,9,-1
 55 432 l 1,10,-1
 34 432 l 1,0,-1
155 432 m 1,11,-1
 133 625 l 1,12,13
 128 660 128 660 128 668 c 0,14,15
 128 692 128 692 167 692 c 0,16,17
 177 692 177 692 186.5 687 c 128,-1,18
 196 682 196 682 196 673 c 0,19,20
 196 641 196 641 195 626 c 2,21,-1
 176 432 l 1,22,-1
 155 432 l 1,11,-1
EndSplineSet
EndChar

StartChar: onealt
Encoding: 127 -1 91
Width: 378
VWidth: 1000
Flags: W
HStem: -10 21G<159 231.963>
VStem: 159 95<17 281.455> 165 81<170.963 588.137>
LayerCount: 2
Fore
SplineSet
54 624 m 1,0,-1
 248 704 l 1,1,2
 249 703 249 703 250.5 701.5 c 128,-1,3
 252 700 252 700 253 698.5 c 2,4,-1
 254 697 l 1,5,6
 246 513 246 513 246 422 c 0,7,8
 246 135 246 135 254 17 c 1,9,-1
 169 -10 l 1,10,-1
 159 -2 l 1,11,12
 164 231 164 231 164 417 c 0,13,14
 164 421 164 421 165 457.5 c 128,-1,15
 166 494 166 494 165 509.5 c 128,-1,16
 164 525 164 525 160.5 551 c 128,-1,17
 157 577 157 577 148 588.5 c 128,-1,18
 139 600 139 600 125 600 c 2,19,-1
 54 600 l 1,20,-1
 54 624 l 1,0,-1
EndSplineSet
EndChar

